<svg id="svg" version="1.1" xmlns="http://www.w3.org/2000/svg" xmlns:xlink="http://www.w3.org/1999/xlink" width="400" height="189.6774193548387" viewBox="0, 0, 400,189.6774193548387"><g id="svgg"><path id="path0" d="M71.107 2.851 C 70.714 2.950,70.074 3.193,69.684 3.391 C 69.294 3.589,68.432 3.890,67.767 4.060 C 67.103 4.229,66.306 4.580,65.997 4.840 C 65.689 5.100,65.318 5.313,65.175 5.313 C 64.829 5.313,60.721 9.393,60.721 9.737 C 60.721 9.885,60.516 10.211,60.265 10.461 C 60.014 10.712,59.667 11.429,59.494 12.053 C 59.322 12.677,58.974 13.615,58.721 14.137 C 57.998 15.630,57.980 20.671,58.691 22.310 C 58.959 22.929,59.311 23.914,59.474 24.501 C 59.636 25.087,59.904 25.679,60.069 25.816 C 60.234 25.953,60.525 26.370,60.715 26.743 C 61.315 27.915,63.560 30.238,64.611 30.774 C 65.028 30.987,65.583 31.355,65.844 31.592 C 66.105 31.829,66.660 32.128,67.078 32.256 C 67.495 32.384,68.128 32.656,68.484 32.860 C 70.149 33.812,76.935 33.806,78.580 32.851 C 78.933 32.646,79.581 32.384,80.020 32.268 C 80.459 32.153,81.056 31.866,81.348 31.630 C 81.640 31.395,82.225 30.980,82.648 30.708 C 83.771 29.987,85.896 27.764,86.342 26.842 C 86.553 26.404,86.889 25.900,87.086 25.721 C 87.284 25.542,87.550 24.954,87.677 24.415 C 87.804 23.876,88.131 23.008,88.404 22.486 C 89.113 21.128,89.168 15.350,88.482 14.190 C 88.253 13.801,87.889 12.893,87.674 12.172 C 87.459 11.450,87.151 10.750,86.988 10.615 C 86.825 10.480,86.558 10.107,86.394 9.786 C 85.862 8.745,82.364 5.313,81.835 5.313 C 81.731 5.313,81.330 5.062,80.943 4.755 C 80.519 4.417,79.814 4.108,79.162 3.973 C 78.569 3.849,77.671 3.533,77.167 3.270 C 76.144 2.735,72.548 2.486,71.107 2.851 M33.915 13.100 C 33.522 13.198,33.010 13.401,32.777 13.550 C 32.544 13.700,31.841 13.967,31.214 14.143 C 30.588 14.320,29.905 14.611,29.696 14.791 C 29.488 14.970,28.929 15.338,28.456 15.608 C 27.293 16.270,25.194 18.401,24.510 19.613 C 24.203 20.156,23.814 20.715,23.646 20.855 C 23.477 20.995,23.340 21.247,23.340 21.416 C 23.340 21.585,23.044 22.322,22.683 23.053 C 21.662 25.119,21.508 32.316,22.461 33.369 C 22.629 33.555,22.940 34.210,23.151 34.824 C 23.363 35.438,23.695 36.115,23.890 36.329 C 24.085 36.542,24.381 36.989,24.549 37.320 C 24.971 38.155,27.710 40.856,28.529 41.245 C 28.900 41.421,29.443 41.765,29.735 42.010 C 30.027 42.255,30.565 42.517,30.930 42.592 C 31.295 42.667,32.149 42.998,32.827 43.328 L 34.061 43.927 37.287 43.926 C 40.424 43.926,40.539 43.912,41.485 43.414 C 42.020 43.132,42.874 42.801,43.383 42.677 C 43.891 42.554,44.521 42.261,44.782 42.026 C 45.043 41.791,45.555 41.452,45.920 41.273 C 46.701 40.889,50.213 37.340,50.399 36.746 C 50.469 36.522,50.725 36.100,50.967 35.810 C 51.210 35.520,51.464 34.965,51.533 34.577 C 51.602 34.189,51.925 33.273,52.252 32.543 C 53.039 30.783,53.149 26.114,52.436 24.763 C 52.215 24.345,51.852 23.388,51.628 22.636 C 51.405 21.883,51.138 21.216,51.035 21.152 C 50.932 21.089,50.670 20.686,50.451 20.258 C 50.014 19.401,49.691 19.020,47.723 17.041 C 46.992 16.306,46.137 15.594,45.822 15.458 C 45.506 15.323,45.094 15.041,44.905 14.832 C 44.715 14.623,44.119 14.348,43.580 14.221 C 43.041 14.094,42.173 13.770,41.651 13.501 C 40.609 12.964,35.521 12.701,33.915 13.100 M106.071 13.073 C 105.809 13.157,105.307 13.374,104.955 13.556 C 104.604 13.738,103.878 14.015,103.344 14.172 C 102.809 14.329,102.201 14.609,101.992 14.795 C 101.784 14.982,101.394 15.251,101.125 15.394 C 99.788 16.108,97.555 18.342,96.794 19.727 C 96.648 19.992,96.335 20.442,96.099 20.726 C 95.862 21.011,95.610 21.523,95.540 21.865 C 95.469 22.206,95.142 23.041,94.812 23.719 L 94.213 24.953 94.213 28.368 L 94.214 31.784 94.813 33.017 C 95.142 33.695,95.468 34.524,95.537 34.857 C 95.605 35.191,95.912 35.779,96.218 36.164 C 96.524 36.549,96.774 36.932,96.774 37.015 C 96.774 37.636,99.973 40.578,101.489 41.351 C 101.922 41.572,102.277 41.833,102.277 41.930 C 102.277 42.129,103.498 42.509,104.080 42.491 C 104.288 42.484,104.041 42.367,103.531 42.230 C 103.020 42.093,102.524 41.841,102.429 41.671 C 102.334 41.502,101.976 41.246,101.634 41.103 C 101.292 40.960,100.800 40.640,100.542 40.393 C 100.284 40.145,99.779 39.686,99.420 39.373 C 98.582 38.641,96.964 36.649,96.964 36.349 C 96.964 36.223,96.761 35.928,96.512 35.695 C 96.211 35.412,95.983 34.878,95.829 34.098 C 95.581 32.835,95.168 31.879,94.872 31.879 C 94.560 31.879,94.630 25.100,94.944 24.915 C 95.328 24.688,95.622 24.033,95.829 22.944 C 95.947 22.317,96.217 21.737,96.584 21.319 C 96.897 20.962,97.154 20.527,97.154 20.352 C 97.154 20.025,97.307 19.846,99.188 17.984 C 101.037 16.153,101.218 16.000,101.708 15.851 C 101.969 15.772,102.397 15.506,102.660 15.260 C 102.966 14.974,103.624 14.712,104.492 14.529 C 105.237 14.372,106.149 14.039,106.517 13.789 C 107.806 12.914,111.325 12.908,112.841 13.777 C 113.277 14.026,114.258 14.362,115.020 14.522 C 115.917 14.711,116.575 14.972,116.885 15.260 C 117.147 15.506,117.576 15.772,117.837 15.851 C 118.098 15.930,118.525 16.201,118.785 16.453 C 121.496 19.072,122.018 19.650,122.347 20.398 C 122.484 20.712,122.771 21.102,122.984 21.265 C 123.239 21.461,123.465 22.007,123.644 22.861 C 123.793 23.576,124.085 24.434,124.292 24.769 C 124.521 25.139,124.675 25.739,124.687 26.303 C 124.697 26.813,124.776 27.699,124.863 28.273 C 124.984 29.073,125.005 28.808,124.954 27.135 C 124.880 24.717,124.024 21.800,123.047 20.639 C 122.791 20.334,122.580 19.985,122.580 19.862 C 122.578 19.290,119.518 16.137,118.406 15.561 C 118.041 15.372,117.536 15.038,117.285 14.819 C 117.034 14.599,116.479 14.328,116.052 14.216 C 115.625 14.104,114.806 13.785,114.231 13.506 C 113.138 12.976,107.336 12.668,106.071 13.073 M51.044 31.682 C 51.044 33.843,51.023 33.963,50.617 34.177 C 50.040 34.481,49.951 34.651,49.803 35.724 C 49.701 36.468,49.587 36.681,49.212 36.823 C 48.957 36.920,48.665 37.235,48.564 37.523 C 48.464 37.810,48.126 38.191,47.815 38.369 C 47.488 38.555,47.249 38.850,47.249 39.065 C 47.249 39.326,47.077 39.476,46.679 39.564 C 46.289 39.649,46.073 39.834,45.994 40.150 C 45.919 40.447,45.700 40.650,45.377 40.721 C 44.181 40.984,43.654 41.223,43.551 41.547 C 43.428 41.937,42.919 42.118,41.935 42.124 C 40.933 42.129,39.876 42.479,39.664 42.874 C 39.276 43.598,35.431 43.616,35.203 42.895 C 35.051 42.418,34.388 42.171,32.848 42.019 C 31.545 41.891,31.135 41.613,31.718 41.254 C 31.869 41.160,31.830 41.041,31.589 40.865 C 31.149 40.543,30.856 40.735,34.820 38.750 C 36.897 37.710,38.458 36.802,38.805 36.433 C 39.134 36.081,40.572 35.225,42.220 34.397 C 43.786 33.612,45.308 32.766,45.603 32.519 C 45.898 32.271,46.310 32.068,46.519 32.068 C 46.727 32.068,47.169 31.793,47.500 31.457 C 48.028 30.921,50.513 29.430,50.901 29.417 C 50.980 29.414,51.044 30.433,51.044 31.682 M124.744 29.676 C 124.688 29.822,124.672 30.270,124.707 30.673 C 124.767 31.350,124.779 31.331,124.862 30.408 C 124.954 29.391,124.925 29.206,124.744 29.676 M124.106 32.467 C 123.898 32.926,123.726 33.430,123.725 33.586 C 123.724 33.743,123.937 33.410,124.199 32.847 C 124.462 32.284,124.633 31.780,124.580 31.728 C 124.528 31.675,124.315 32.008,124.106 32.467 M71.347 39.079 C 70.460 39.158,69.350 39.368,68.880 39.545 C 68.411 39.722,67.343 39.957,66.509 40.066 C 65.574 40.188,64.697 40.433,64.227 40.703 C 63.807 40.945,62.964 41.273,62.355 41.432 C 61.745 41.591,61.059 41.897,60.830 42.112 C 60.601 42.327,60.024 42.636,59.548 42.798 C 59.071 42.961,58.485 43.302,58.245 43.558 C 58.005 43.814,57.698 44.023,57.564 44.023 C 57.429 44.023,57.069 44.258,56.764 44.545 C 56.458 44.832,55.676 45.493,55.025 46.015 C 53.690 47.085,52.347 48.445,51.633 49.448 C 50.676 50.793,48.211 50.871,45.256 49.650 C 43.644 48.984,36.828 48.941,34.900 49.585 C 34.126 49.844,32.766 50.192,31.880 50.358 C 30.994 50.525,30.047 50.825,29.775 51.026 C 29.503 51.227,28.825 51.526,28.267 51.692 C 27.710 51.858,27.077 52.150,26.862 52.342 C 26.647 52.533,26.172 52.803,25.806 52.941 C 25.441 53.079,24.929 53.381,24.668 53.612 C 24.407 53.844,23.987 54.140,23.735 54.270 C 23.162 54.566,21.713 55.755,20.147 57.216 C 18.570 58.686,17.200 60.401,15.844 62.602 C 15.636 62.940,15.187 63.656,14.848 64.193 C 14.509 64.729,14.231 65.308,14.231 65.479 C 14.231 65.651,13.986 66.251,13.685 66.814 C 13.385 67.377,13.037 68.350,12.912 68.976 C 12.787 69.602,12.456 70.754,12.177 71.537 L 11.670 72.960 11.670 89.670 L 11.670 106.380 12.492 107.317 C 12.944 107.833,13.542 108.308,13.820 108.374 C 14.600 108.559,101.182 108.534,101.613 108.349 C 101.980 108.191,101.979 108.186,101.581 108.173 C 100.461 108.136,100.297 107.724,101.117 107.004 C 101.898 106.319,101.934 105.088,101.863 81.309 L 101.803 61.195 101.394 60.342 C 101.169 59.872,100.884 58.975,100.761 58.349 C 100.637 57.723,100.337 56.912,100.093 56.546 C 99.849 56.181,99.558 55.541,99.445 55.123 C 99.332 54.706,98.984 53.989,98.671 53.529 C 98.088 52.673,97.874 51.207,98.294 50.948 C 98.400 50.882,99.316 50.744,100.330 50.641 C 101.543 50.516,102.597 50.277,103.411 49.941 C 105.267 49.176,109.025 49.180,110.740 49.950 C 111.550 50.314,112.480 50.533,113.844 50.682 C 115.320 50.842,115.946 50.999,116.432 51.329 C 116.785 51.568,117.523 51.868,118.072 51.996 C 118.621 52.124,119.284 52.421,119.545 52.657 C 119.806 52.892,120.361 53.191,120.778 53.320 C 121.195 53.449,121.726 53.751,121.958 53.992 C 122.190 54.233,122.574 54.489,122.812 54.561 C 123.050 54.633,123.478 54.918,123.762 55.193 C 124.047 55.468,124.636 55.991,125.071 56.357 C 126.413 57.484,128.817 59.961,128.937 60.341 C 129.000 60.539,129.213 60.753,129.410 60.815 C 129.607 60.878,129.863 61.217,129.979 61.568 C 130.095 61.920,130.386 62.337,130.626 62.494 C 130.882 62.661,131.164 63.142,131.308 63.656 C 131.442 64.138,131.717 64.647,131.918 64.788 C 132.124 64.932,132.409 65.528,132.571 66.156 C 132.729 66.767,133.025 67.446,133.227 67.664 C 133.474 67.930,133.689 68.645,133.883 69.846 C 134.041 70.828,134.351 72.006,134.572 72.464 C 134.792 72.921,135.043 73.561,135.130 73.887 C 135.236 74.289,135.256 74.073,135.192 73.213 C 135.140 72.517,134.938 71.578,134.743 71.126 C 134.548 70.674,134.281 69.706,134.148 68.975 C 134.015 68.245,133.713 67.348,133.476 66.983 C 133.239 66.618,132.953 65.967,132.841 65.537 C 132.728 65.107,132.467 64.540,132.259 64.276 C 132.052 64.012,131.713 63.403,131.507 62.923 C 131.302 62.442,131.063 62.049,130.977 62.049 C 130.892 62.049,130.660 61.772,130.462 61.433 C 128.867 58.700,124.010 54.218,121.252 52.933 C 120.783 52.714,120.264 52.413,120.101 52.265 C 119.937 52.117,119.302 51.823,118.691 51.613 C 118.079 51.402,117.440 51.105,117.270 50.951 C 117.100 50.797,116.155 50.509,115.169 50.311 C 114.184 50.113,113.049 49.813,112.646 49.645 C 110.577 48.779,104.358 48.751,101.867 49.596 C 98.142 50.859,96.347 50.796,95.389 49.369 C 94.728 48.383,92.692 46.382,91.155 45.205 C 89.113 43.642,88.603 43.307,87.356 42.714 C 86.716 42.410,86.136 42.069,86.066 41.956 C 85.996 41.843,85.452 41.610,84.858 41.438 C 84.263 41.266,83.392 40.929,82.922 40.688 C 82.438 40.439,81.393 40.159,80.509 40.040 C 79.651 39.926,78.457 39.663,77.857 39.456 C 76.588 39.020,73.803 38.858,71.347 39.079 M104.570 42.580 C 104.731 42.732,106.072 43.241,106.072 43.150 C 106.072 43.097,105.776 42.931,105.414 42.780 C 104.777 42.513,104.408 42.426,104.570 42.580 M44.774 84.254 C 44.999 107.930,44.948 106.618,45.676 107.293 C 45.957 107.554,46.137 107.816,46.076 107.877 C 46.016 107.937,40.273 107.927,33.314 107.853 L 20.663 107.719 21.567 106.801 C 22.315 106.041,22.589 105.882,23.153 105.882 C 23.683 105.882,23.978 105.734,24.478 105.218 C 24.968 104.713,25.278 104.554,25.775 104.554 C 26.273 104.554,26.623 104.374,27.252 103.795 C 27.704 103.378,28.253 103.036,28.471 103.036 C 29.042 103.036,29.493 102.754,30.608 101.700 C 31.362 100.986,31.737 100.766,32.201 100.763 C 32.991 100.758,33.966 99.775,34.841 98.102 C 35.196 97.424,35.559 96.741,35.647 96.584 C 36.623 94.854,38.140 91.338,38.140 90.806 C 38.140 90.448,38.218 90.107,38.314 90.048 C 38.409 89.989,38.545 89.579,38.615 89.136 C 38.686 88.693,38.873 87.946,39.032 87.476 C 39.190 87.007,39.385 86.153,39.465 85.579 C 39.669 84.122,40.352 80.924,40.700 79.800 C 40.861 79.283,41.078 78.301,41.183 77.618 C 41.358 76.477,41.900 73.516,42.620 69.756 C 42.926 68.155,43.213 67.198,43.943 65.338 C 44.200 64.683,44.402 63.770,44.402 63.266 C 44.402 62.771,44.440 62.403,44.485 62.449 C 44.531 62.494,44.661 72.307,44.774 84.254 M135.353 76.565 C 135.354 77.192,135.389 77.425,135.432 77.084 C 135.474 76.743,135.473 76.231,135.430 75.945 C 135.386 75.660,135.352 75.939,135.353 76.565 M112.200 108.301 C 113.014 108.336,114.295 108.336,115.047 108.300 C 115.798 108.264,115.133 108.235,113.567 108.235 C 112.002 108.236,111.387 108.265,112.200 108.301 M83.875 126.210 C 78.060 126.883,72.954 131.092,70.593 137.159 C 69.741 139.348,69.691 139.558,69.352 142.441 C 69.206 143.676,68.993 145.311,68.878 146.074 C 68.727 147.069,68.725 147.793,68.870 148.636 C 68.982 149.282,69.201 150.870,69.357 152.165 C 70.128 158.557,73.223 163.271,78.214 165.655 C 83.145 168.010,93.303 167.534,96.916 164.778 C 97.906 164.022,98.102 163.445,98.102 161.281 C 98.102 157.718,97.565 157.410,94.402 159.161 C 93.463 159.681,92.396 160.170,92.030 160.248 C 91.665 160.326,90.864 160.550,90.250 160.745 C 87.191 161.719,82.948 160.385,80.752 157.757 C 76.969 153.232,76.994 141.086,80.797 135.777 C 82.772 133.017,86.787 131.598,89.943 132.543 C 90.815 132.804,91.688 133.017,91.884 133.017 C 92.080 133.017,92.807 133.359,93.499 133.776 C 94.192 134.194,94.849 134.537,94.960 134.539 C 95.071 134.542,95.366 134.701,95.615 134.893 C 97.795 136.569,99.209 131.488,97.219 129.126 C 95.153 126.674,89.860 125.517,83.875 126.210 M32.909 127.128 C 31.364 127.753,31.578 129.022,34.740 137.951 C 35.276 139.464,35.883 141.214,36.089 141.841 C 36.296 142.467,36.664 143.534,36.907 144.213 C 37.537 145.969,38.102 147.720,38.499 149.146 C 38.984 150.889,40.524 155.257,40.954 156.113 C 41.152 156.508,41.372 157.148,41.443 157.535 C 41.513 157.921,41.732 158.605,41.930 159.053 C 42.127 159.501,42.459 160.465,42.666 161.195 C 44.061 166.116,44.208 166.224,49.520 166.224 L 53.329 166.224 54.181 165.438 C 54.887 164.788,55.101 164.420,55.422 163.304 C 55.636 162.562,56.012 161.485,56.257 160.911 C 56.701 159.873,57.140 158.612,57.940 156.072 C 58.170 155.342,58.587 154.103,58.865 153.321 C 59.144 152.538,59.776 150.617,60.269 149.051 C 60.763 147.486,61.273 146.034,61.404 145.825 C 61.534 145.617,61.785 144.934,61.961 144.307 C 62.138 143.681,62.434 142.785,62.620 142.315 C 62.806 141.845,63.405 140.052,63.950 138.330 C 64.495 136.608,65.094 134.815,65.281 134.345 C 65.469 133.876,65.763 132.947,65.934 132.281 C 66.106 131.616,66.384 130.861,66.553 130.605 C 68.161 128.150,66.854 126.864,62.865 126.976 C 59.359 127.073,59.409 127.003,57.026 135.199 C 56.783 136.034,56.445 137.041,56.275 137.436 C 56.105 137.831,55.659 139.154,55.284 140.377 C 54.908 141.599,54.352 143.411,54.047 144.402 C 53.742 145.394,53.297 146.931,53.059 147.818 C 52.821 148.705,52.536 149.602,52.426 149.810 C 52.316 150.019,52.051 150.830,51.837 151.613 C 51.381 153.281,50.278 155.779,49.835 156.147 C 49.456 156.461,48.898 155.325,48.114 152.638 C 47.843 151.709,47.442 150.436,47.224 149.810 C 47.005 149.184,46.681 148.159,46.503 147.533 C 46.325 146.907,45.950 145.825,45.670 145.129 C 45.390 144.433,45.159 143.707,45.157 143.516 C 45.155 143.325,44.984 142.796,44.777 142.341 C 44.571 141.885,44.269 140.989,44.108 140.348 C 43.837 139.274,42.852 135.994,42.191 133.966 C 42.038 133.496,41.673 132.343,41.379 131.404 C 40.622 128.981,39.902 127.684,39.089 127.277 C 38.367 126.916,33.710 126.804,32.909 127.128 M105.218 127.213 C 104.142 127.691,103.775 128.297,103.581 129.917 C 103.366 131.706,103.442 164.483,103.662 164.896 C 104.227 165.958,105.054 166.224,107.788 166.224 L 110.391 166.224 111.157 165.480 L 111.924 164.736 111.986 158.275 C 112.067 150.024,111.259 150.978,118.269 150.854 C 124.919 150.736,125.068 150.668,125.033 147.776 C 124.994 144.632,124.961 144.617,118.095 144.603 C 111.404 144.589,112.076 145.124,111.983 139.735 C 111.911 135.592,112.085 133.771,112.584 133.447 C 112.707 133.367,115.455 133.259,118.691 133.207 C 126.041 133.088,125.735 133.227,125.687 130.042 C 125.663 128.428,125.244 127.323,124.554 127.059 C 123.895 126.806,105.810 126.950,105.218 127.213 " stroke="none" fill="#23a4dd" fill-rule="evenodd"></path><path id="path1" d="M339.848 25.233 C 339.848 25.478,381.218 25.471,381.604 25.227 C 381.771 25.121,373.679 25.052,360.863 25.050 C 347.257 25.048,339.848 25.113,339.848 25.233 M124.849 30.408 C 124.845 30.852,124.707 31.556,124.543 31.973 C 124.379 32.391,124.033 33.328,123.773 34.057 C 123.514 34.785,123.097 35.571,122.846 35.803 C 122.596 36.035,122.391 36.349,122.391 36.501 C 122.391 37.095,118.936 40.577,117.916 41.012 C 117.611 41.142,117.149 41.432,116.888 41.657 C 116.627 41.882,115.836 42.217,115.131 42.402 C 114.426 42.586,113.647 42.896,113.400 43.090 C 112.201 44.033,107.878 44.017,105.631 43.061 C 104.913 42.755,104.141 42.511,103.918 42.519 C 103.579 42.531,103.607 42.573,104.080 42.766 C 104.393 42.895,105.076 43.208,105.598 43.462 C 106.486 43.895,106.747 43.925,109.680 43.926 L 112.814 43.928 114.044 43.315 C 114.721 42.979,115.628 42.615,116.059 42.508 C 116.491 42.400,116.959 42.173,117.100 42.003 C 117.242 41.833,117.700 41.545,118.119 41.363 C 119.274 40.861,121.958 38.130,122.699 36.704 C 122.850 36.413,123.134 36.062,123.330 35.924 C 123.531 35.784,123.777 35.256,123.892 34.719 C 124.005 34.193,124.274 33.417,124.490 32.994 C 124.863 32.263,125.248 29.602,124.980 29.602 C 124.913 29.602,124.854 29.964,124.849 30.408 M215.133 33.187 L 214.231 34.107 214.231 41.164 C 214.231 45.667,214.160 48.355,214.035 48.589 C 213.842 48.950,213.321 48.956,185.307 48.956 L 156.775 48.956 155.807 49.904 L 154.839 50.852 154.839 68.427 L 154.839 86.002 155.810 86.929 L 156.782 87.856 185.209 87.856 C 210.798 87.856,213.665 87.886,213.933 88.154 C 214.194 88.414,214.231 89.353,214.231 95.579 L 214.231 102.705 215.133 103.625 L 216.034 104.544 217.482 104.549 C 218.916 104.554,218.935 104.548,219.437 103.890 C 219.876 103.314,220.051 103.226,220.752 103.226 C 221.430 103.226,221.628 103.134,221.981 102.657 C 222.326 102.190,222.539 102.087,223.156 102.087 C 223.876 102.087,224.026 101.997,224.787 101.105 C 224.905 100.967,225.161 100.717,225.356 100.549 C 225.552 100.381,225.860 100.061,226.042 99.837 C 226.275 99.550,226.585 99.431,227.098 99.431 C 227.689 99.431,227.933 99.307,228.412 98.767 C 228.898 98.218,229.131 98.102,229.753 98.102 C 230.390 98.102,230.583 98.001,231.012 97.438 C 231.455 96.857,231.623 96.774,232.350 96.774 C 233.057 96.774,233.242 96.689,233.586 96.205 C 233.922 95.734,234.124 95.636,234.754 95.636 C 235.387 95.636,235.616 95.523,236.104 94.972 C 236.583 94.431,236.827 94.307,237.418 94.307 C 237.931 94.307,238.241 94.188,238.474 93.901 C 238.656 93.677,238.966 93.357,239.164 93.189 C 239.361 93.021,239.660 92.725,239.828 92.531 C 240.512 91.739,240.664 91.651,241.345 91.651 C 241.918 91.651,242.169 91.523,242.643 90.987 C 243.131 90.435,243.361 90.323,243.994 90.323 C 244.624 90.323,244.826 90.224,245.161 89.753 C 245.497 89.281,245.698 89.184,246.335 89.184 C 246.970 89.184,247.208 89.069,247.711 88.520 C 248.195 87.991,248.462 87.856,249.019 87.856 C 249.634 87.856,249.874 87.697,251.018 86.528 C 252.158 85.362,252.403 85.199,253.011 85.199 C 253.485 85.199,253.808 85.073,254.034 84.799 C 254.717 83.970,254.884 83.871,255.606 83.871 C 256.208 83.871,256.424 83.765,256.766 83.302 C 257.119 82.824,257.317 82.732,257.996 82.732 C 258.697 82.732,258.872 82.644,259.311 82.068 C 259.741 81.504,259.932 81.404,260.578 81.404 C 261.273 81.404,261.449 81.289,262.606 80.076 C 263.769 78.856,263.935 78.748,264.646 78.748 C 265.307 78.748,265.493 78.651,265.926 78.083 C 266.343 77.537,266.557 77.419,267.135 77.416 C 267.947 77.413,268.170 77.296,268.479 76.708 C 268.661 76.363,268.866 76.281,269.542 76.281 C 270.276 76.281,270.442 76.199,270.886 75.617 C 271.319 75.049,271.505 74.953,272.166 74.953 C 272.877 74.953,273.043 74.845,274.206 73.624 C 275.322 72.455,275.555 72.296,276.164 72.296 C 277.173 72.296,280.076 69.424,280.076 68.426 C 280.076 67.397,277.183 64.516,276.149 64.516 C 275.495 64.516,275.303 64.386,274.194 63.188 C 273.047 61.951,272.908 61.860,272.168 61.860 C 271.501 61.860,271.308 61.768,270.968 61.290 C 270.633 60.820,270.431 60.721,269.800 60.721 C 269.167 60.721,268.938 60.608,268.450 60.057 C 267.971 59.516,267.727 59.393,267.136 59.393 C 266.628 59.393,266.311 59.272,266.080 58.992 C 265.401 58.168,265.232 58.065,264.570 58.065 C 263.981 58.065,263.722 57.890,262.593 56.736 C 261.449 55.567,261.209 55.408,260.594 55.408 C 260.037 55.408,259.770 55.273,259.286 54.744 C 258.788 54.201,258.542 54.080,257.932 54.080 C 257.324 54.080,257.110 53.975,256.766 53.510 C 256.419 53.041,256.211 52.941,255.576 52.941 C 254.935 52.941,254.708 52.830,254.218 52.277 C 253.757 51.756,253.487 51.613,252.966 51.613 C 252.394 51.613,252.122 51.429,251.005 50.285 C 249.866 49.118,249.623 48.956,249.013 48.956 C 248.462 48.956,248.194 48.819,247.711 48.292 C 247.208 47.743,246.970 47.628,246.335 47.628 C 245.698 47.628,245.497 47.531,245.161 47.059 C 244.818 46.577,244.630 46.490,243.937 46.490 C 243.225 46.490,243.053 46.403,242.612 45.825 C 242.187 45.268,241.988 45.161,241.371 45.161 C 240.711 45.161,240.503 45.026,239.341 43.835 C 238.219 42.687,237.955 42.509,237.369 42.507 C 236.836 42.505,236.568 42.364,236.104 41.841 C 235.616 41.289,235.387 41.176,234.754 41.176 C 234.124 41.176,233.922 41.078,233.586 40.607 C 233.242 40.123,233.057 40.038,232.350 40.038 C 231.623 40.038,231.455 39.955,231.012 39.374 C 230.573 38.798,230.398 38.710,229.696 38.710 C 228.995 38.710,228.820 38.621,228.381 38.046 C 227.952 37.484,227.759 37.381,227.123 37.381 C 226.588 37.381,226.277 37.266,226.042 36.979 C 225.860 36.757,225.596 36.480,225.454 36.362 C 225.312 36.244,224.893 35.828,224.522 35.436 C 223.972 34.857,223.713 34.725,223.124 34.725 C 222.542 34.725,222.321 34.615,221.981 34.156 C 221.628 33.678,221.430 33.586,220.752 33.586 C 220.051 33.586,219.876 33.498,219.437 32.922 C 218.935 32.264,218.916 32.258,217.482 32.263 L 216.034 32.268 215.133 33.187 M100.421 40.844 C 100.714 41.131,101.060 41.364,101.189 41.360 C 101.318 41.357,101.252 41.260,101.044 41.145 C 100.835 41.029,100.489 40.797,100.275 40.629 C 100.062 40.460,100.127 40.557,100.421 40.844 M135.353 74.478 C 135.354 75.104,135.389 75.338,135.432 74.997 C 135.474 74.656,135.473 74.143,135.430 73.858 C 135.386 73.573,135.352 73.852,135.353 74.478 M313.323 75.303 C 313.138 75.421,313.061 76.621,313.005 80.281 C 312.886 87.979,312.619 109.609,312.619 111.479 L 312.619 113.186 313.378 113.436 C 314.502 113.806,324.281 113.683,324.750 113.293 C 325.051 113.044,325.071 112.671,324.973 109.119 C 324.914 106.973,324.811 98.515,324.744 90.323 C 324.656 79.601,324.561 75.388,324.407 75.288 C 324.113 75.096,313.627 75.110,313.323 75.303 M135.340 91.480 C 135.293 105.750,135.254 106.508,134.560 106.728 C 134.383 106.785,134.092 107.077,133.914 107.379 C 133.441 108.180,133.700 108.168,117.144 108.192 C 108.811 108.204,101.822 108.281,101.613 108.364 C 101.091 108.571,132.177 108.571,133.069 108.363 C 133.823 108.188,135.195 106.890,135.391 106.167 C 135.447 105.958,135.469 99.426,135.440 91.651 L 135.387 77.514 135.340 91.480 M298.609 97.960 C 298.673 98.299,298.735 98.585,298.746 98.595 C 298.758 98.605,299.010 98.327,299.307 97.978 L 299.848 97.343 299.170 97.343 C 298.507 97.343,298.494 97.358,298.609 97.960 M298.689 102.941 C 298.679 103.567,298.583 106.079,298.475 108.523 C 298.348 111.394,298.344 113.031,298.463 113.150 C 298.601 113.287,307.119 113.393,309.393 113.286 C 309.948 113.260,310.077 112.959,309.890 112.127 C 309.787 111.667,309.552 110.414,309.369 109.342 L 309.036 107.394 308.352 108.061 L 307.669 108.729 304.546 108.727 C 299.511 108.723,299.805 108.976,299.040 103.985 C 298.736 101.995,298.705 101.903,298.689 102.941 M319.049 105.693 L 323.266 105.693 323.487 107.068 C 323.670 108.201,323.897 110.088,324.155 112.619 C 324.191 112.975,314.598 113.347,313.752 113.022 C 313.612 112.969,313.623 112.008,313.789 109.841 C 314.091 105.888,314.171 105.439,314.543 105.582 C 314.702 105.643,316.729 105.693,319.049 105.693 M338.352 112.593 C 338.182 112.797,338.178 112.904,338.337 113.003 C 338.632 113.184,338.919 112.863,338.732 112.561 C 338.611 112.365,338.535 112.371,338.352 112.593 M308.065 134.080 C 301.797 134.633,296.255 138.213,294.471 142.862 C 294.376 143.110,294.114 143.571,293.890 143.886 C 292.096 146.406,291.298 156.761,292.557 161.196 C 292.765 161.926,293.042 162.993,293.174 163.567 C 293.305 164.141,293.599 164.834,293.827 165.108 C 294.054 165.381,294.356 165.893,294.498 166.246 C 294.640 166.599,294.975 167.162,295.243 167.496 C 295.511 167.831,296.072 168.534,296.490 169.059 C 296.907 169.584,297.310 170.015,297.384 170.016 C 297.459 170.018,297.800 170.258,298.143 170.550 C 299.047 171.321,301.319 172.607,302.059 172.767 C 302.409 172.842,303.177 173.130,303.767 173.406 C 305.428 174.185,312.757 174.184,314.516 173.405 C 315.143 173.127,315.954 172.843,316.319 172.774 C 317.830 172.486,319.610 171.293,319.885 170.383 C 320.216 169.285,320.097 166.800,319.682 166.167 L 319.375 165.699 317.135 166.815 C 308.979 170.881,301.478 167.551,300.295 159.340 C 298.985 150.250,301.200 142.487,305.647 140.577 C 306.142 140.365,306.931 140.007,307.400 139.783 C 309.486 138.784,313.394 139.411,317.345 141.377 C 318.624 142.014,319.448 142.093,319.706 141.603 C 320.357 140.364,320.069 137.577,319.205 136.764 C 317.219 134.897,312.284 133.707,308.065 134.080 M335.579 134.147 C 333.229 134.380,331.900 134.681,331.147 135.149 C 330.768 135.385,330.158 135.715,329.792 135.882 C 328.998 136.243,327.041 138.158,326.625 138.979 C 326.463 139.301,326.205 139.706,326.052 139.881 C 325.617 140.377,324.858 143.589,324.858 144.930 C 324.858 147.434,325.985 150.409,327.594 152.151 C 328.247 152.858,328.290 152.898,329.222 153.662 C 330.118 154.396,334.774 156.748,336.623 157.401 C 341.210 159.019,342.843 164.381,339.566 167.066 C 336.964 169.198,330.086 168.705,326.075 166.099 C 324.851 165.304,324.295 166.063,324.291 168.536 C 324.287 171.037,325.180 172.116,327.815 172.795 C 328.432 172.954,329.124 173.204,329.352 173.350 C 330.632 174.173,338.023 174.247,339.753 173.454 C 340.275 173.215,341.129 172.891,341.651 172.734 C 342.173 172.577,342.728 172.343,342.884 172.215 C 343.041 172.086,343.562 171.757,344.042 171.483 C 347.088 169.745,349.156 165.444,348.895 161.385 C 348.621 157.113,346.800 154.338,342.913 152.269 C 342.427 152.011,341.902 151.721,341.746 151.625 C 341.589 151.528,340.693 151.096,339.753 150.663 C 338.814 150.230,337.789 149.738,337.476 149.571 C 337.163 149.403,336.480 149.055,335.958 148.797 C 334.289 147.971,333.066 146.921,332.756 146.047 C 332.058 144.078,332.048 143.994,332.374 142.990 C 333.349 139.985,337.574 138.340,340.607 139.783 C 341.077 140.006,341.908 140.333,342.455 140.508 C 343.002 140.683,343.499 140.906,343.559 141.004 C 344.139 141.943,346.362 142.107,346.693 141.235 C 346.912 140.659,346.914 138.848,346.697 137.912 C 346.091 135.303,341.072 133.603,335.579 134.147 M353.488 134.894 C 353.049 134.968,352.630 135.215,352.328 135.579 L 351.854 136.148 352.369 138.140 C 352.652 139.236,353.053 140.517,353.261 140.987 C 353.468 141.456,353.742 142.259,353.869 142.771 C 353.996 143.282,354.217 143.929,354.362 144.207 C 354.506 144.486,354.800 145.405,355.016 146.250 C 355.232 147.096,355.611 148.200,355.860 148.704 C 356.108 149.208,356.419 150.085,356.551 150.652 C 356.683 151.220,356.943 151.946,357.129 152.265 C 357.315 152.585,357.609 153.398,357.781 154.071 C 357.954 154.745,358.211 155.520,358.352 155.792 C 358.493 156.065,358.788 156.994,359.008 157.856 C 359.229 158.718,359.493 159.566,359.596 159.740 C 359.700 159.914,360.031 160.783,360.333 161.670 C 360.635 162.557,361.114 163.966,361.398 164.801 C 361.681 165.636,362.066 166.660,362.254 167.078 C 362.441 167.495,362.734 168.385,362.905 169.055 C 363.286 170.554,364.190 172.385,364.649 172.591 C 365.265 172.867,371.684 172.927,372.618 172.665 C 373.363 172.456,373.516 172.319,373.853 171.555 C 374.065 171.076,374.432 170.253,374.668 169.727 C 374.905 169.201,375.199 168.289,375.321 167.699 C 375.444 167.109,375.709 166.417,375.911 166.160 C 376.112 165.904,376.409 165.124,376.571 164.427 C 376.733 163.729,377.068 162.632,377.316 161.987 C 377.922 160.412,378.694 158.062,379.122 156.491 C 379.316 155.782,379.599 155.011,379.752 154.777 C 379.905 154.544,380.216 153.673,380.444 152.842 C 380.672 152.011,380.975 151.203,381.116 151.045 C 381.258 150.888,381.543 150.119,381.749 149.336 C 382.191 147.657,382.977 145.259,383.520 143.928 C 383.733 143.406,384.076 142.345,384.282 141.571 C 384.487 140.796,384.810 139.857,384.999 139.483 C 386.763 135.993,385.802 134.474,382.049 134.818 C 379.836 135.021,379.108 135.750,378.351 138.520 C 377.883 140.233,377.103 142.543,376.461 144.118 C 376.163 144.848,375.861 145.787,375.790 146.205 C 375.718 146.622,375.463 147.519,375.223 148.197 C 374.983 148.876,374.654 150.010,374.491 150.719 C 374.328 151.428,374.057 152.275,373.888 152.602 C 373.719 152.929,373.420 153.867,373.225 154.686 C 373.029 155.504,372.707 156.493,372.510 156.882 C 372.312 157.272,372.052 158.067,371.932 158.649 C 371.811 159.232,371.532 160.043,371.312 160.452 C 371.091 160.861,370.758 161.785,370.571 162.506 C 369.817 165.416,368.364 164.974,367.552 161.586 C 367.328 160.653,367.034 159.671,366.899 159.404 C 366.764 159.137,366.513 158.277,366.341 157.493 C 366.169 156.710,365.856 155.785,365.646 155.439 C 365.435 155.093,365.133 154.248,364.974 153.562 C 364.814 152.876,364.524 152.001,364.328 151.617 C 364.133 151.233,363.799 150.286,363.588 149.511 C 362.802 146.634,362.211 144.661,361.859 143.738 C 361.659 143.216,361.354 142.192,361.180 141.461 C 361.006 140.731,360.701 139.847,360.503 139.498 C 360.305 139.149,359.975 138.258,359.771 137.520 C 359.096 135.085,357.161 134.277,353.488 134.894 " stroke="none" fill="#9b599f" fill-rule="evenodd"></path><path id="path2" d="M0.000 94.877 L 0.000 189.753 200.000 189.753 L 400.000 189.753 400.000 94.877 L 400.000 0.000 394.877 0.000 L 389.753 0.000 389.753 57.865 L 389.753 115.730 389.089 116.237 C 388.517 116.673,388.425 116.853,388.425 117.537 C 388.425 117.973,388.323 118.433,388.197 118.558 C 387.866 118.889,294.677 118.889,294.345 118.558 C 294.170 118.382,294.118 108.705,294.118 76.155 C 294.118 34.651,294.112 33.976,293.751 33.783 C 293.516 33.657,290.778 33.586,286.165 33.586 L 278.947 33.586 278.667 33.045 C 278.513 32.748,278.170 32.361,277.903 32.187 L 277.419 31.870 277.419 19.362 C 277.419 9.867,277.474 6.820,277.646 6.713 C 277.771 6.636,281.387 6.595,285.682 6.623 C 295.137 6.682,294.118 7.118,294.118 3.022 L 294.118 0.000 147.059 0.000 L 0.000 0.000 0.000 94.877 M69.314 2.912 C 69.881 3.149,70.098 3.148,70.988 2.907 C 72.109 2.603,75.799 2.657,76.656 2.989 C 76.986 3.117,77.309 3.094,77.748 2.911 C 78.090 2.768,78.885 2.597,79.514 2.531 L 80.657 2.411 81.695 3.491 C 82.266 4.085,82.732 4.741,82.732 4.949 C 82.732 5.291,82.819 5.315,83.668 5.202 C 84.597 5.079,84.609 5.084,85.565 6.040 C 86.584 7.060,86.653 7.287,86.270 8.360 C 85.969 9.200,86.061 9.602,86.461 9.201 C 86.836 8.827,87.030 8.844,87.429 9.288 C 88.038 9.967,88.137 10.061,88.662 10.453 C 89.295 10.926,89.333 11.583,88.814 13.087 C 88.528 13.914,88.500 14.202,88.678 14.510 C 89.062 15.178,88.976 21.398,88.572 22.135 C 88.301 22.631,88.290 22.751,88.509 22.835 C 89.432 23.189,89.213 25.627,88.227 25.971 C 87.662 26.168,87.646 26.204,87.766 27.010 C 87.865 27.669,87.824 27.900,87.571 28.107 C 87.395 28.250,87.039 28.582,86.780 28.843 C 86.522 29.103,86.225 29.402,86.120 29.507 C 86.016 29.611,85.725 29.910,85.474 30.171 C 85.223 30.432,84.952 30.705,84.871 30.778 C 84.228 31.361,83.937 31.677,83.755 31.990 C 83.582 32.290,83.365 32.343,82.516 32.297 C 81.499 32.242,81.485 32.248,81.304 32.866 C 81.072 33.654,80.233 33.798,79.111 33.242 C 78.699 33.039,78.323 32.937,78.275 33.015 C 78.226 33.094,77.926 33.210,77.609 33.273 C 77.084 33.378,77.054 33.424,77.272 33.773 C 77.851 34.700,77.425 34.820,73.529 34.820 C 69.634 34.820,69.208 34.700,69.787 33.773 C 70.005 33.424,69.974 33.378,69.450 33.273 C 69.132 33.210,68.832 33.092,68.783 33.012 C 68.733 32.933,68.375 33.029,67.988 33.227 C 66.757 33.854,65.655 33.561,65.655 32.607 C 65.655 32.266,65.553 32.230,64.746 32.288 L 63.838 32.353 61.516 30.040 L 59.195 27.727 59.315 26.976 C 59.430 26.255,59.407 26.210,58.750 25.899 C 58.373 25.720,58.056 25.476,58.045 25.358 C 57.988 24.711,58.134 23.742,58.385 23.117 C 58.617 22.537,58.627 22.281,58.441 21.719 C 58.316 21.340,58.210 20.539,58.204 19.938 C 58.194 18.861,58.189 18.851,57.829 19.211 C 57.226 19.813,56.702 19.191,56.775 17.961 C 56.844 16.807,57.262 16.428,57.864 16.973 C 58.254 17.326,58.254 17.324,58.254 16.266 C 58.254 15.682,58.340 14.978,58.446 14.701 C 58.586 14.332,58.563 13.979,58.361 13.383 C 57.879 11.963,57.915 10.823,58.455 10.412 C 58.710 10.217,59.178 9.797,59.496 9.479 C 60.056 8.917,60.721 8.851,60.721 9.356 C 60.721 9.487,60.787 9.497,60.900 9.383 C 61.011 9.271,60.966 8.801,60.778 8.129 L 60.479 7.056 61.467 6.067 C 62.453 5.081,62.459 5.078,63.395 5.203 C 64.326 5.326,64.334 5.323,64.450 4.743 C 64.527 4.359,64.754 4.061,65.111 3.877 C 65.410 3.722,65.655 3.498,65.655 3.378 C 65.655 2.451,67.613 2.201,69.314 2.912 M45.338 13.706 C 45.439 13.995,45.651 14.231,45.809 14.231 C 46.260 14.231,46.540 14.902,46.205 15.180 C 45.870 15.458,46.576 16.157,47.019 15.987 C 47.170 15.929,47.256 15.997,47.226 16.151 C 47.197 16.295,47.506 16.755,47.913 17.173 C 48.319 17.590,48.543 17.788,48.411 17.611 C 47.911 16.946,49.607 16.434,50.187 17.075 C 50.618 17.551,50.210 18.900,49.649 18.853 C 49.394 18.832,49.428 18.922,49.804 19.271 C 50.068 19.516,50.290 19.827,50.297 19.962 C 50.303 20.098,50.386 20.017,50.480 19.782 C 50.719 19.188,51.191 19.249,51.574 19.923 C 51.752 20.235,51.976 20.491,52.072 20.492 C 52.546 20.495,52.941 21.159,52.941 21.952 C 52.941 23.018,52.434 24.313,52.176 23.906 C 51.830 23.359,51.998 23.935,52.414 24.723 C 53.112 26.043,53.054 30.771,52.322 32.334 C 52.033 32.950,51.833 33.491,51.877 33.535 C 51.922 33.579,52.015 33.433,52.086 33.211 C 52.254 32.681,52.677 33.005,52.851 33.797 C 53.089 34.881,52.120 35.362,51.842 34.298 L 51.680 33.681 51.552 34.473 C 51.481 34.908,51.210 35.519,50.949 35.829 C 50.688 36.139,50.474 36.461,50.474 36.544 C 50.474 36.627,50.602 36.529,50.759 36.327 C 51.060 35.938,51.719 36.400,51.557 36.886 C 51.412 37.319,50.838 37.484,50.646 37.147 C 50.485 36.863,50.293 37.007,49.257 38.191 C 47.822 39.830,46.658 40.893,45.849 41.301 C 45.523 41.466,45.058 41.783,44.817 42.005 C 44.575 42.228,44.020 42.508,43.583 42.628 C 43.110 42.759,42.957 42.855,43.205 42.866 C 43.932 42.898,43.910 43.833,43.182 43.833 C 42.689 43.833,42.197 43.286,42.505 43.081 C 43.072 42.701,42.469 42.896,41.502 43.405 C 39.979 44.206,34.583 44.207,33.039 43.406 C 32.042 42.889,31.520 42.714,32.068 43.081 C 32.453 43.338,31.934 43.745,30.996 43.921 C 29.962 44.115,29.006 42.964,29.912 42.616 C 30.194 42.508,30.190 42.461,29.873 42.110 C 29.528 41.729,29.521 41.729,29.386 42.095 C 28.967 43.226,25.617 41.780,25.617 40.469 C 25.617 40.370,25.402 40.191,25.140 40.071 C 24.877 39.952,24.565 39.639,24.445 39.377 C 24.325 39.114,24.126 38.899,24.003 38.899 C 23.513 38.899,23.101 38.174,23.225 37.531 C 23.417 36.534,23.620 36.308,24.037 36.629 C 24.228 36.776,24.171 36.643,23.909 36.332 C 23.648 36.022,23.407 35.727,23.373 35.675 C 23.339 35.624,23.228 35.731,23.126 35.912 C 22.885 36.344,22.530 36.331,22.118 35.876 C 21.720 35.437,21.857 34.499,22.398 33.959 C 22.697 33.660,22.707 33.580,22.471 33.385 C 22.321 33.260,22.143 32.817,22.077 32.401 C 21.984 31.819,21.917 31.716,21.784 31.952 C 21.590 32.300,20.959 32.362,20.768 32.051 C 20.522 31.654,20.616 25.073,20.871 24.764 C 21.172 24.402,21.341 24.404,21.713 24.776 C 21.984 25.047,22.011 25.042,22.011 24.722 C 22.011 24.527,22.171 24.056,22.365 23.675 C 22.642 23.131,22.665 22.960,22.471 22.886 C 21.907 22.669,21.706 21.236,22.185 20.848 C 22.712 20.421,22.850 20.410,23.209 20.770 C 23.451 21.012,23.528 20.999,23.829 20.667 C 24.110 20.356,24.117 20.308,23.870 20.403 C 23.486 20.551,23.407 20.413,23.242 19.311 C 23.114 18.456,23.135 18.397,23.666 18.092 C 23.973 17.916,24.362 17.531,24.532 17.235 C 24.701 16.940,24.964 16.698,25.115 16.698 C 25.266 16.698,25.566 16.399,25.781 16.034 C 25.997 15.669,26.302 15.370,26.459 15.370 C 26.617 15.370,26.878 15.114,27.040 14.801 C 27.363 14.176,27.397 14.164,28.700 14.224 C 29.536 14.263,29.602 14.233,29.602 13.813 C 29.602 12.869,30.804 12.590,32.076 13.238 C 32.672 13.542,32.785 13.546,33.302 13.285 C 34.161 12.852,40.471 12.870,41.263 13.309 C 41.780 13.594,41.862 13.595,42.291 13.314 C 43.447 12.556,45.007 12.757,45.338 13.706 M104.032 13.186 C 104.584 13.414,104.411 13.637,103.468 13.912 C 102.063 14.322,101.438 13.915,102.192 13.083 C 102.483 12.761,103.083 12.795,104.032 13.186 M117.457 13.671 C 117.457 14.174,117.017 14.240,115.856 13.909 C 114.629 13.561,114.681 13.221,116.003 12.942 C 116.873 12.759,117.457 13.052,117.457 13.671 M114.231 13.506 C 114.806 13.785,115.625 14.104,116.052 14.216 C 116.479 14.328,117.034 14.599,117.285 14.819 C 117.536 15.038,118.041 15.372,118.406 15.561 C 119.528 16.142,122.578 19.291,122.580 19.870 C 122.580 19.997,122.825 20.381,123.125 20.724 C 123.424 21.067,123.814 21.850,123.992 22.465 C 124.169 23.080,124.458 23.802,124.634 24.069 C 125.186 24.913,125.101 31.885,124.525 32.963 C 124.290 33.403,124.005 34.193,123.892 34.719 C 123.777 35.256,123.531 35.784,123.330 35.924 C 123.134 36.062,122.850 36.413,122.699 36.704 C 121.958 38.130,119.274 40.861,118.119 41.363 C 117.700 41.545,117.242 41.833,117.100 42.003 C 116.959 42.173,116.491 42.400,116.059 42.508 C 115.628 42.615,114.721 42.979,114.044 43.315 L 112.814 43.928 109.680 43.928 C 106.552 43.928,106.544 43.927,105.313 43.330 C 104.635 43.001,103.730 42.638,103.303 42.524 C 102.876 42.410,102.321 42.138,102.070 41.919 C 101.818 41.701,101.349 41.412,101.027 41.277 C 100.259 40.956,97.255 37.945,96.787 37.028 C 96.587 36.634,96.287 36.200,96.122 36.063 C 95.957 35.926,95.686 35.347,95.520 34.776 C 95.354 34.205,94.992 33.302,94.715 32.769 C 94.226 31.825,94.213 31.709,94.213 28.376 L 94.213 24.953 94.812 23.719 C 95.142 23.041,95.469 22.206,95.540 21.865 C 95.610 21.523,95.862 21.011,96.099 20.726 C 96.335 20.442,96.648 19.992,96.794 19.727 C 97.555 18.342,99.788 16.108,101.125 15.394 C 101.394 15.251,101.784 14.982,101.992 14.795 C 102.201 14.609,102.809 14.329,103.344 14.172 C 103.878 14.015,104.604 13.738,104.955 13.556 C 106.091 12.969,106.494 12.920,109.867 12.960 C 113.036 12.998,113.236 13.023,114.231 13.506 M119.825 14.416 C 120.142 14.767,120.144 14.822,119.850 15.270 C 119.471 15.848,119.559 15.844,118.506 15.332 C 117.223 14.709,117.478 14.291,119.278 14.068 C 119.392 14.053,119.638 14.210,119.825 14.416 M101.580 14.546 C 101.783 14.749,101.325 15.167,101.025 15.052 C 100.813 14.971,100.800 14.885,100.967 14.684 C 101.206 14.396,101.388 14.355,101.580 14.546 M99.267 15.755 L 99.715 16.139 99.241 16.466 C 98.765 16.794,98.409 17.164,97.763 18.002 C 97.433 18.430,97.400 18.436,97.085 18.121 C 96.628 17.664,96.767 17.035,97.391 16.737 C 97.678 16.600,97.913 16.392,97.913 16.276 C 97.913 15.539,98.674 15.245,99.267 15.755 M122.353 16.926 C 122.661 17.234,122.639 17.688,122.295 18.133 C 122.017 18.491,121.997 18.486,121.544 17.938 C 120.898 17.158,121.648 16.221,122.353 16.926 M123.531 20.207 C 123.200 20.605,122.880 20.285,123.056 19.732 C 123.176 19.352,123.217 19.340,123.485 19.609 C 123.733 19.857,123.740 19.955,123.531 20.207 M96.299 19.733 C 96.363 19.836,96.345 20.046,96.260 20.199 C 96.052 20.571,95.542 20.253,95.697 19.848 C 95.828 19.506,96.124 19.450,96.299 19.733 M95.242 20.671 C 95.542 20.860,95.226 22.839,94.860 23.065 C 94.665 23.186,94.118 22.040,94.118 21.511 C 94.118 20.858,94.770 20.371,95.242 20.671 M50.990 21.143 C 51.361 21.638,51.495 21.662,51.318 21.199 C 51.255 21.036,51.080 20.855,50.928 20.796 C 50.720 20.716,50.735 20.802,50.990 21.143 M124.921 22.472 C 124.978 22.621,124.912 22.836,124.774 22.951 C 124.500 23.179,124.189 22.706,124.394 22.374 C 124.552 22.118,124.803 22.164,124.921 22.472 M339.511 24.584 C 338.096 25.575,339.418 26.242,342.505 26.093 C 343.914 26.025,353.571 25.912,363.965 25.841 C 383.682 25.706,383.918 25.695,383.298 24.948 C 382.781 24.325,381.517 24.288,360.679 24.288 C 342.209 24.288,339.886 24.321,339.511 24.584 M126.369 24.845 C 126.657 25.383,126.629 31.739,126.338 32.030 C 126.039 32.329,125.433 32.323,125.406 32.021 C 125.292 30.706,125.359 24.897,125.491 24.715 C 125.744 24.367,126.145 24.426,126.369 24.845 M381.604 25.227 C 381.218 25.471,339.848 25.478,339.848 25.233 C 339.848 25.113,347.257 25.048,360.863 25.050 C 373.679 25.052,381.771 25.121,381.604 25.227 M93.813 26.107 C 94.097 26.849,93.936 30.749,93.616 30.872 C 93.056 31.086,92.884 30.496,92.897 28.410 C 92.912 26.217,93.392 25.009,93.813 26.107 M339.868 28.724 C 339.310 29.397,339.798 29.602,341.962 29.602 C 344.135 29.602,344.578 29.417,344.021 28.745 C 343.698 28.356,340.188 28.338,339.868 28.724 M307.306 30.215 C 292.903 30.294,280.714 30.314,280.218 30.258 C 279.491 30.177,279.317 30.214,279.317 30.449 C 279.317 30.706,280.179 30.740,286.589 30.740 L 293.862 30.740 294.281 31.186 C 294.923 31.869,296.044 32.181,296.774 31.879 C 297.238 31.686,297.522 31.682,298.112 31.859 C 298.674 32.027,299.040 32.030,299.573 31.871 C 300.038 31.732,301.238 31.696,303.036 31.767 C 306.388 31.901,306.422 31.901,309.984 31.769 C 312.247 31.685,312.991 31.720,313.510 31.937 C 314.074 32.173,314.258 32.175,314.791 31.951 C 315.663 31.584,320.396 31.588,321.278 31.957 C 321.830 32.187,322.008 32.187,322.556 31.957 C 323.001 31.770,323.983 31.689,325.805 31.689 C 327.625 31.689,328.611 31.770,329.058 31.957 C 329.610 32.187,329.788 32.187,330.336 31.957 C 330.687 31.809,331.264 31.689,331.619 31.689 C 332.684 31.689,334.319 30.426,333.634 30.132 C 333.556 30.099,321.708 30.136,307.306 30.215 M219.437 32.922 C 219.876 33.498,220.051 33.586,220.752 33.586 C 221.430 33.586,221.628 33.678,221.981 34.156 C 222.321 34.615,222.542 34.725,223.124 34.725 C 223.713 34.725,223.972 34.857,224.522 35.436 C 224.893 35.828,225.312 36.244,225.454 36.362 C 225.596 36.480,225.860 36.757,226.042 36.979 C 226.277 37.266,226.588 37.381,227.123 37.381 C 227.759 37.381,227.952 37.484,228.381 38.046 C 228.820 38.621,228.995 38.710,229.696 38.710 C 230.398 38.710,230.573 38.798,231.012 39.374 C 231.455 39.955,231.623 40.038,232.350 40.038 C 233.057 40.038,233.242 40.123,233.586 40.607 C 233.922 41.078,234.124 41.176,234.754 41.176 C 235.387 41.176,235.616 41.289,236.104 41.841 C 236.568 42.364,236.836 42.505,237.369 42.507 C 237.955 42.509,238.219 42.687,239.341 43.835 C 240.503 45.026,240.711 45.161,241.371 45.161 C 241.988 45.161,242.187 45.268,242.612 45.825 C 243.053 46.403,243.225 46.490,243.937 46.490 C 244.630 46.490,244.818 46.577,245.161 47.059 C 245.497 47.531,245.698 47.628,246.335 47.628 C 246.970 47.628,247.208 47.743,247.711 48.292 C 248.194 48.819,248.462 48.956,249.013 48.956 C 249.623 48.956,249.866 49.118,251.005 50.285 C 252.122 51.429,252.394 51.613,252.966 51.613 C 253.487 51.613,253.757 51.756,254.218 52.277 C 254.708 52.830,254.935 52.941,255.576 52.941 C 256.211 52.941,256.419 53.041,256.766 53.510 C 257.110 53.975,257.324 54.080,257.932 54.080 C 258.542 54.080,258.788 54.201,259.286 54.744 C 259.770 55.273,260.037 55.408,260.594 55.408 C 261.209 55.408,261.449 55.567,262.593 56.736 C 263.722 57.890,263.981 58.065,264.570 58.065 C 265.232 58.065,265.401 58.168,266.080 58.992 C 266.311 59.272,266.628 59.393,267.136 59.393 C 267.727 59.393,267.971 59.516,268.450 60.057 C 268.938 60.608,269.167 60.721,269.800 60.721 C 270.431 60.721,270.633 60.820,270.968 61.290 C 271.308 61.768,271.501 61.860,272.168 61.860 C 272.908 61.860,273.047 61.951,274.194 63.188 C 275.303 64.386,275.495 64.516,276.149 64.516 C 277.183 64.516,280.076 67.397,280.076 68.426 C 280.076 69.424,277.173 72.296,276.164 72.296 C 275.555 72.296,275.322 72.455,274.206 73.624 C 273.043 74.845,272.877 74.953,272.166 74.953 C 271.505 74.953,271.319 75.049,270.886 75.617 C 270.442 76.199,270.276 76.281,269.542 76.281 C 268.866 76.281,268.661 76.363,268.479 76.708 C 268.170 77.296,267.947 77.413,267.135 77.416 C 266.557 77.419,266.343 77.537,265.926 78.083 C 265.493 78.651,265.307 78.748,264.646 78.748 C 263.935 78.748,263.769 78.856,262.606 80.076 C 261.449 81.289,261.273 81.404,260.578 81.404 C 259.932 81.404,259.741 81.504,259.311 82.068 C 258.872 82.644,258.697 82.732,257.996 82.732 C 257.317 82.732,257.119 82.824,256.766 83.302 C 256.424 83.765,256.208 83.871,255.606 83.871 C 254.884 83.871,254.717 83.970,254.034 84.799 C 253.808 85.073,253.485 85.199,253.011 85.199 C 252.403 85.199,252.158 85.362,251.018 86.528 C 249.874 87.697,249.634 87.856,249.019 87.856 C 248.462 87.856,248.195 87.991,247.711 88.520 C 247.208 89.069,246.970 89.184,246.335 89.184 C 245.698 89.184,245.497 89.281,245.161 89.753 C 244.826 90.224,244.624 90.323,243.994 90.323 C 243.361 90.323,243.131 90.435,242.643 90.987 C 242.169 91.523,241.918 91.651,241.345 91.651 C 240.664 91.651,240.512 91.739,239.828 92.531 C 239.660 92.725,239.361 93.021,239.164 93.189 C 238.966 93.357,238.656 93.677,238.474 93.901 C 238.241 94.188,237.931 94.307,237.418 94.307 C 236.827 94.307,236.583 94.431,236.104 94.972 C 235.616 95.523,235.387 95.636,234.754 95.636 C 234.124 95.636,233.922 95.734,233.586 96.205 C 233.242 96.689,233.057 96.774,232.350 96.774 C 231.623 96.774,231.455 96.857,231.012 97.438 C 230.583 98.001,230.390 98.102,229.753 98.102 C 229.131 98.102,228.898 98.218,228.412 98.767 C 227.933 99.307,227.689 99.431,227.098 99.431 C 226.585 99.431,226.275 99.550,226.042 99.837 C 225.860 100.061,225.552 100.381,225.356 100.549 C 225.161 100.717,224.905 100.967,224.787 101.105 C 224.026 101.997,223.876 102.087,223.156 102.087 C 222.539 102.087,222.326 102.190,221.981 102.657 C 221.628 103.134,221.430 103.226,220.752 103.226 C 220.051 103.226,219.876 103.314,219.437 103.890 C 218.935 104.548,218.916 104.554,217.482 104.549 L 216.034 104.544 215.133 103.625 L 214.231 102.705 214.231 95.579 C 214.231 89.353,214.194 88.414,213.933 88.154 C 213.665 87.886,210.798 87.856,185.209 87.856 L 156.782 87.856 155.810 86.929 L 154.839 86.002 154.839 68.427 L 154.839 50.852 155.807 49.904 L 156.775 48.956 185.307 48.956 C 213.321 48.956,213.842 48.950,214.035 48.589 C 214.160 48.355,214.231 45.667,214.231 41.164 L 214.231 34.107 215.133 33.187 L 216.034 32.268 217.482 32.263 C 218.916 32.258,218.935 32.264,219.437 32.922 M339.731 32.723 C 339.515 33.286,339.876 33.397,341.923 33.397 C 344.039 33.397,344.686 33.187,344.170 32.671 C 343.819 32.320,339.867 32.367,339.731 32.723 M95.161 34.601 C 95.578 36.035,95.196 36.725,94.416 35.945 C 94.045 35.574,94.038 35.092,94.393 34.244 C 94.755 33.378,94.813 33.405,95.161 34.601 M124.825 34.480 C 124.518 34.849,124.219 34.484,124.388 33.949 C 124.520 33.534,124.537 33.531,124.784 33.867 C 124.978 34.134,124.988 34.283,124.825 34.480 M339.770 36.552 C 339.519 37.206,340.000 37.381,342.041 37.381 C 344.039 37.381,344.558 37.145,344.119 36.434 C 343.902 36.083,339.909 36.191,339.770 36.552 M96.299 36.621 C 96.530 36.994,96.115 37.445,95.842 37.117 C 95.602 36.828,95.702 36.433,96.015 36.433 C 96.107 36.433,96.235 36.517,96.299 36.621 M123.629 36.631 C 123.807 36.918,123.325 37.443,123.095 37.212 C 122.882 37.000,123.048 36.433,123.323 36.433 C 123.424 36.433,123.562 36.522,123.629 36.631 M24.777 37.998 C 24.830 38.129,25.105 38.399,25.388 38.598 C 25.901 38.961,25.900 38.960,25.344 38.361 C 24.735 37.706,24.630 37.638,24.777 37.998 M99.004 40.133 C 99.745 40.743,99.769 40.927,99.147 41.211 C 98.640 41.442,97.913 41.020,97.913 40.496 C 97.913 40.362,97.753 40.203,97.558 40.141 C 96.757 39.887,96.539 39.389,96.981 38.826 L 97.383 38.315 97.885 38.970 C 98.161 39.331,98.665 39.854,99.004 40.133 M122.543 38.987 C 122.892 39.755,122.057 40.310,121.419 39.733 C 121.097 39.441,121.099 39.404,121.476 38.894 C 121.917 38.297,122.241 38.325,122.543 38.987 M68.128 38.982 C 68.976 39.205,69.649 39.219,71.822 39.059 C 73.713 38.920,74.951 38.924,76.121 39.073 C 77.477 39.247,77.956 39.233,78.865 38.996 C 80.642 38.534,81.656 38.833,81.200 39.685 C 81.060 39.948,81.074 40.062,81.254 40.113 C 82.837 40.560,82.961 40.572,83.559 40.322 C 84.946 39.742,85.987 39.863,86.511 40.665 C 86.958 41.347,87.024 41.380,87.716 41.263 C 88.482 41.134,89.184 41.512,89.184 42.055 C 89.184 42.193,89.440 42.438,89.753 42.600 C 90.066 42.762,90.323 43.046,90.323 43.231 C 90.323 43.822,90.698 44.005,91.671 43.890 C 92.547 43.786,92.603 43.808,92.926 44.377 C 93.112 44.705,93.414 45.021,93.598 45.080 C 93.782 45.140,94.058 45.432,94.213 45.731 C 94.367 46.029,94.666 46.328,94.877 46.395 C 95.088 46.462,95.381 46.750,95.529 47.035 C 95.676 47.321,96.009 47.651,96.269 47.769 C 96.529 47.888,96.797 48.160,96.865 48.375 C 96.997 48.790,97.217 48.865,98.847 49.051 C 99.949 49.176,100.639 49.449,100.485 49.698 C 100.369 49.886,97.619 50.380,96.964 50.330 C 96.503 50.295,96.501 50.298,96.909 50.470 C 97.437 50.692,99.933 50.252,101.867 49.596 C 104.358 48.751,110.577 48.779,112.646 49.645 C 113.049 49.813,114.184 50.113,115.169 50.311 C 116.155 50.509,117.100 50.797,117.270 50.951 C 117.440 51.105,118.079 51.402,118.691 51.613 C 119.302 51.823,119.937 52.117,120.101 52.265 C 120.264 52.413,120.783 52.714,121.252 52.933 C 124.010 54.218,128.867 58.700,130.462 61.433 C 130.660 61.772,130.892 62.049,130.977 62.049 C 131.063 62.049,131.302 62.442,131.507 62.923 C 131.713 63.403,132.052 64.012,132.259 64.276 C 132.467 64.540,132.728 65.107,132.841 65.537 C 132.953 65.967,133.239 66.618,133.476 66.983 C 133.713 67.348,134.016 68.245,134.150 68.975 C 134.284 69.706,134.618 70.816,134.892 71.442 L 135.389 72.581 135.442 89.403 L 135.496 106.225 134.705 107.145 C 134.270 107.651,133.776 108.150,133.608 108.254 C 133.413 108.375,127.166 108.480,116.414 108.542 C 107.125 108.596,99.910 108.669,100.380 108.704 C 101.955 108.821,132.951 108.775,133.328 108.655 C 133.905 108.473,134.423 108.930,134.115 109.349 C 133.873 109.677,13.606 109.900,13.077 109.573 C 12.550 109.247,12.910 108.539,13.615 108.516 C 14.240 108.497,14.265 108.479,13.820 108.374 C 13.542 108.308,12.944 107.833,12.492 107.317 L 11.670 106.380 11.672 89.670 C 11.674 74.870,11.709 72.860,11.977 72.087 C 12.241 71.325,12.246 71.150,12.010 70.700 C 11.541 69.806,11.447 67.546,11.866 67.239 C 12.383 66.862,12.895 66.927,13.067 67.393 C 13.205 67.765,13.231 67.772,13.349 67.464 C 13.420 67.277,13.396 67.024,13.294 66.902 C 12.968 66.509,12.833 65.113,13.092 64.802 C 13.405 64.425,14.023 64.437,14.171 64.823 C 14.270 65.079,14.329 65.055,14.529 64.681 C 14.685 64.390,14.706 64.156,14.587 64.013 C 13.946 63.240,14.132 61.855,14.878 61.861 C 14.992 61.862,15.311 61.588,15.587 61.252 C 16.019 60.727,16.131 60.677,16.393 60.893 C 16.849 61.272,17.561 60.396,17.160 59.950 C 16.569 59.293,16.602 58.481,17.235 58.118 C 17.555 57.935,17.906 57.590,18.014 57.352 C 18.122 57.115,18.416 56.827,18.667 56.713 C 18.918 56.598,19.217 56.299,19.331 56.048 C 19.445 55.797,19.736 55.502,19.977 55.393 C 20.217 55.283,20.496 55.014,20.596 54.794 C 20.919 54.086,21.322 53.980,22.143 54.387 C 22.837 54.730,22.928 54.735,23.388 54.457 L 23.885 54.156 23.477 53.901 L 23.069 53.647 23.639 53.152 C 23.953 52.879,24.364 52.411,24.553 52.112 C 24.908 51.550,26.226 51.475,26.837 51.982 C 26.956 52.080,27.164 52.092,27.299 52.008 C 27.493 51.888,27.482 51.831,27.246 51.740 C 26.239 51.354,27.333 50.186,28.533 50.366 C 29.369 50.491,29.378 50.486,29.599 49.819 C 29.924 48.832,31.840 48.649,33.701 49.427 C 34.317 49.684,34.494 49.683,35.420 49.413 C 37.100 48.925,43.945 49.107,45.311 49.677 C 45.862 49.907,46.417 50.089,46.544 50.083 C 46.671 50.076,46.568 49.988,46.315 49.887 C 45.669 49.629,46.005 49.377,47.323 49.134 C 48.873 48.847,49.772 49.673,48.519 50.232 C 48.154 50.395,48.209 50.433,48.979 50.548 C 50.347 50.754,50.893 50.425,50.550 49.605 C 50.125 48.586,50.207 48.058,50.840 47.730 C 51.146 47.572,51.451 47.270,51.518 47.059 C 51.585 46.848,51.884 46.549,52.182 46.395 C 52.480 46.240,52.775 45.956,52.836 45.763 C 52.897 45.570,53.167 45.294,53.435 45.151 C 53.703 45.007,54.049 44.645,54.203 44.346 C 54.469 43.832,54.542 43.806,55.548 43.865 C 56.602 43.927,56.613 43.923,56.771 43.323 C 56.862 42.977,57.093 42.667,57.310 42.598 C 57.518 42.532,57.818 42.229,57.975 41.925 C 58.270 41.354,58.698 41.181,59.672 41.238 C 60.115 41.264,60.289 41.160,60.488 40.751 C 60.941 39.817,62.189 39.694,63.794 40.426 C 64.150 40.588,64.382 40.591,64.669 40.437 C 64.884 40.322,65.289 40.228,65.568 40.228 C 66.019 40.228,66.062 40.173,65.952 39.735 C 65.700 38.731,66.335 38.512,68.128 38.982 M25.930 39.379 C 25.991 39.539,26.223 39.764,26.445 39.879 C 26.818 40.073,26.813 40.049,26.390 39.589 C 25.861 39.014,25.774 38.975,25.930 39.379 M27.325 40.482 C 27.586 40.779,27.970 41.110,28.178 41.217 C 28.578 41.423,28.566 41.411,27.515 40.511 L 26.851 39.943 27.325 40.482 M339.868 40.299 C 339.310 40.972,339.798 41.176,341.962 41.176 C 344.135 41.176,344.578 40.992,344.021 40.320 C 343.698 39.931,340.188 39.913,339.868 40.299 M46.402 41.758 C 46.707 42.252,45.881 42.740,45.458 42.315 C 45.121 41.977,45.106 41.898,45.351 41.742 C 45.731 41.501,46.248 41.509,46.402 41.758 M101.623 41.952 C 101.693 42.065,101.659 42.250,101.547 42.361 C 101.311 42.598,100.695 42.193,100.867 41.914 C 101.012 41.680,101.469 41.703,101.623 41.952 M118.596 41.912 C 118.596 42.004,118.464 42.188,118.303 42.322 C 117.969 42.599,117.514 42.304,117.732 41.952 C 117.884 41.706,118.596 41.673,118.596 41.912 M104.104 43.015 C 104.701 43.244,104.214 43.738,103.208 43.927 C 102.298 44.096,101.507 43.338,102.039 42.806 C 102.175 42.670,103.573 42.811,104.104 43.015 M117.457 43.162 C 117.457 44.010,115.783 44.274,115.160 43.524 C 114.881 43.188,114.997 43.069,115.787 42.882 C 117.053 42.582,117.457 42.650,117.457 43.162 M339.770 44.331 C 339.523 44.977,340.004 45.161,341.935 45.161 C 343.861 45.161,344.393 44.956,344.145 44.310 C 343.976 43.869,339.940 43.889,339.770 44.331 M339.868 48.078 C 339.310 48.751,339.798 48.956,341.962 48.956 C 344.135 48.956,344.578 48.772,344.021 48.100 C 343.698 47.711,340.188 47.693,339.868 48.078 M117.230 49.184 C 117.725 49.680,117.505 50.285,116.828 50.285 C 115.225 50.285,113.353 49.739,113.866 49.422 C 114.580 48.981,116.865 48.819,117.230 49.184 M119.917 50.652 C 120.181 51.144,120.171 51.190,119.755 51.412 C 119.329 51.640,117.576 51.122,117.761 50.823 C 118.118 50.245,119.635 50.124,119.917 50.652 M122.491 51.998 C 123.140 52.715,122.468 53.095,121.325 52.658 L 120.427 52.315 120.861 51.964 C 121.427 51.505,122.057 51.518,122.491 51.998 M339.773 52.104 C 339.559 52.661,339.860 52.751,341.923 52.751 C 344.039 52.751,344.686 52.542,344.170 52.026 C 343.799 51.655,339.919 51.724,339.773 52.104 M123.523 53.217 C 123.783 53.532,123.635 53.890,123.245 53.890 C 122.903 53.890,122.709 53.565,122.843 53.217 C 122.977 52.865,123.231 52.866,123.523 53.217 M126.871 55.103 C 127.433 55.665,127.894 56.223,127.894 56.341 C 127.894 56.459,128.108 56.637,128.370 56.737 C 128.633 56.837,128.936 57.113,129.044 57.351 C 129.153 57.589,129.493 57.929,129.801 58.105 C 130.429 58.466,130.507 58.910,130.054 59.557 L 129.746 59.995 129.247 59.262 C 128.674 58.421,126.198 55.978,125.286 55.354 C 124.948 55.123,124.698 54.848,124.732 54.744 C 124.783 54.584,125.564 54.091,125.780 54.082 C 125.817 54.081,126.308 54.540,126.871 55.103 M339.842 55.890 C 339.419 56.400,339.907 56.581,341.991 56.687 C 344.035 56.791,344.593 56.556,344.119 55.789 C 343.913 55.457,340.127 55.546,339.842 55.890 M337.808 57.272 C 337.638 57.380,337.738 57.548,338.162 57.861 C 338.789 58.324,339.080 58.194,339.086 57.448 C 339.089 57.093,338.268 56.980,337.808 57.272 M340.814 59.847 C 340.436 60.302,341.194 60.555,342.745 60.492 C 343.973 60.442,344.118 60.396,344.118 60.057 C 344.118 59.556,341.209 59.371,340.814 59.847 M131.499 61.408 C 131.499 61.552,131.328 61.670,131.120 61.670 C 130.750 61.670,130.583 61.131,130.865 60.849 C 131.036 60.678,131.499 61.087,131.499 61.408 M132.708 62.213 C 132.955 62.485,132.986 62.676,132.844 63.048 C 132.501 63.952,132.048 63.834,131.781 62.771 C 131.556 61.873,132.103 61.544,132.708 62.213 M340.925 63.590 C 340.197 64.014,341.058 64.516,342.511 64.516 C 343.845 64.516,344.367 64.244,344.145 63.665 C 344.013 63.320,341.490 63.262,340.925 63.590 M134.042 64.875 C 134.339 65.203,134.342 65.295,134.081 65.919 C 133.715 66.796,133.510 66.783,133.235 65.864 C 132.876 64.665,133.339 64.098,134.042 64.875 M135.290 67.358 C 135.543 67.611,135.639 67.906,135.583 68.260 C 135.537 68.549,135.451 69.097,135.392 69.478 C 135.194 70.746,134.785 70.760,134.544 69.507 C 134.427 68.902,134.296 68.243,134.253 68.043 C 134.063 67.162,134.684 66.752,135.290 67.358 M340.906 67.537 C 340.425 68.068,340.984 68.311,342.688 68.311 C 344.110 68.311,344.515 68.051,344.021 67.455 C 343.647 67.005,341.332 67.066,340.906 67.537 M340.839 71.381 C 340.375 71.845,340.969 72.106,342.490 72.106 C 344.018 72.106,344.574 71.878,344.185 71.409 C 343.916 71.084,341.159 71.061,340.839 71.381 M312.951 74.850 L 312.334 75.124 312.324 80.399 C 312.318 83.300,312.272 91.879,312.222 99.462 L 312.130 113.251 312.559 113.551 C 313.182 113.988,324.367 114.004,324.987 113.569 L 325.391 113.286 325.306 102.137 C 325.259 96.004,325.224 87.481,325.229 83.196 C 325.236 76.760,325.190 75.341,324.968 75.036 C 324.606 74.541,314.018 74.377,312.951 74.850 M340.942 75.215 C 340.419 75.612,340.744 75.712,342.557 75.712 C 344.026 75.712,344.238 75.671,344.138 75.411 C 344.075 75.246,344.023 75.076,344.023 75.032 C 344.023 74.824,341.239 74.989,340.942 75.215 M324.407 75.288 C 324.561 75.388,324.656 79.601,324.744 90.323 C 324.811 98.515,324.914 106.973,324.973 109.119 C 325.071 112.671,325.051 113.044,324.750 113.293 C 324.281 113.683,314.502 113.806,313.378 113.436 L 312.619 113.186 312.619 111.479 C 312.619 109.609,312.886 87.979,313.005 80.281 C 313.061 76.621,313.138 75.421,313.323 75.303 C 313.627 75.110,324.113 75.096,324.407 75.288 M342.852 77.799 C 340.692 77.891,339.916 78.065,340.822 78.253 C 341.531 78.401,344.808 78.591,345.541 78.528 C 345.906 78.496,347.528 78.475,349.146 78.481 C 350.764 78.487,352.514 78.490,353.036 78.488 C 353.558 78.486,355.287 78.486,356.879 78.487 C 358.470 78.489,360.157 78.490,360.626 78.490 C 361.096 78.490,362.846 78.490,364.516 78.490 C 366.186 78.490,367.936 78.490,368.406 78.490 C 368.876 78.490,370.562 78.484,372.154 78.477 C 373.745 78.471,375.346 78.484,375.712 78.506 C 376.906 78.581,383.458 78.277,383.594 78.140 C 383.935 77.797,349.602 77.510,342.852 77.799 M338.463 88.081 C 338.277 91.969,337.595 102.031,337.456 102.912 C 337.282 104.025,336.736 104.175,332.852 104.175 L 329.639 104.175 329.422 103.178 C 329.302 102.630,329.018 101.499,328.790 100.664 L 328.375 99.146 328.247 100.000 C 328.064 101.227,327.722 106.291,327.613 109.393 C 327.561 110.854,327.466 112.283,327.400 112.568 C 327.215 113.378,327.735 113.455,333.587 113.481 C 339.323 113.507,339.521 113.475,339.369 112.555 C 339.323 112.277,339.191 106.371,339.075 99.431 C 338.853 86.158,338.695 83.218,338.463 88.081 M298.303 97.056 C 298.219 97.162,298.107 100.860,298.052 105.275 L 297.954 113.301 298.391 113.587 C 298.760 113.829,299.672 113.865,304.309 113.815 C 311.250 113.742,310.836 113.920,310.721 111.053 C 310.676 109.931,310.591 106.368,310.532 103.136 C 310.436 97.841,310.394 97.239,310.099 97.070 C 309.651 96.812,298.505 96.799,298.303 97.056 M299.307 97.978 C 299.010 98.327,298.758 98.605,298.746 98.595 C 298.291 98.191,298.578 97.343,299.170 97.343 L 299.848 97.343 299.307 97.978 M299.706 107.331 C 300.110 108.748,300.024 108.724,304.546 108.727 L 307.669 108.729 308.352 108.061 L 309.036 107.394 309.369 109.342 C 309.552 110.414,309.787 111.667,309.890 112.127 C 310.077 112.959,309.948 113.260,309.393 113.286 C 307.119 113.393,298.601 113.287,298.463 113.150 C 298.344 113.031,298.348 111.394,298.475 108.523 C 298.583 106.079,298.679 103.567,298.689 102.941 C 298.705 101.903,298.736 101.995,299.040 103.985 C 299.224 105.185,299.524 106.691,299.706 107.331 M12.713 108.006 C 12.713 108.280,12.604 108.360,12.288 108.315 C 11.807 108.246,11.598 107.621,11.977 107.387 C 12.301 107.186,12.713 107.533,12.713 108.006 M135.266 107.652 C 135.419 107.835,135.415 107.963,135.252 108.126 C 134.917 108.461,134.535 108.395,134.535 108.001 C 134.535 107.396,134.907 107.218,135.266 107.652 M22.628 108.681 C 27.090 108.710,34.390 108.710,38.852 108.681 C 43.314 108.653,39.663 108.630,30.740 108.630 C 21.817 108.630,18.167 108.653,22.628 108.681 M338.718 112.970 C 338.429 113.260,338.089 112.909,338.352 112.593 C 338.535 112.371,338.611 112.365,338.732 112.561 C 338.816 112.695,338.809 112.880,338.718 112.970 M297.913 116.450 C 296.850 116.567,296.693 116.656,296.966 116.985 C 297.263 117.343,384.959 117.421,385.898 117.064 C 387.563 116.432,386.401 116.414,342.125 116.395 C 318.174 116.385,298.278 116.410,297.913 116.450 M90.038 126.194 C 96.061 126.763,98.834 129.341,98.031 133.625 C 97.782 134.951,96.539 135.603,95.615 134.893 C 95.366 134.701,95.071 134.542,94.960 134.539 C 94.849 134.537,94.192 134.194,93.499 133.776 C 92.807 133.359,92.080 133.017,91.884 133.017 C 91.688 133.017,90.815 132.804,89.943 132.543 C 86.787 131.598,82.772 133.017,80.797 135.777 C 76.994 141.086,76.969 153.232,80.752 157.757 C 82.948 160.385,87.191 161.719,90.250 160.745 C 90.864 160.550,91.665 160.326,92.030 160.248 C 92.396 160.170,93.463 159.681,94.402 159.161 C 96.696 157.892,97.364 157.798,97.786 158.689 C 98.211 159.583,98.232 162.957,97.818 163.757 C 96.031 167.212,83.929 168.384,78.214 165.655 C 73.223 163.271,70.128 158.557,69.357 152.165 C 69.201 150.870,68.982 149.282,68.870 148.636 C 68.725 147.793,68.727 147.069,68.878 146.074 C 68.993 145.311,69.206 143.676,69.352 142.441 C 69.802 138.616,70.602 136.383,72.589 133.398 C 76.428 127.631,81.796 125.415,90.038 126.194 M39.089 127.277 C 39.902 127.684,40.622 128.981,41.379 131.404 C 41.673 132.343,42.038 133.496,42.191 133.966 C 42.852 135.994,43.837 139.274,44.108 140.348 C 44.269 140.989,44.571 141.885,44.777 142.341 C 44.984 142.796,45.155 143.325,45.157 143.516 C 45.159 143.707,45.390 144.433,45.670 145.129 C 45.950 145.825,46.325 146.907,46.503 147.533 C 46.681 148.159,47.005 149.184,47.224 149.810 C 47.442 150.436,47.843 151.709,48.114 152.638 C 48.898 155.325,49.456 156.461,49.835 156.147 C 50.278 155.779,51.381 153.281,51.837 151.613 C 52.051 150.830,52.316 150.019,52.426 149.810 C 52.536 149.602,52.821 148.705,53.059 147.818 C 53.297 146.931,53.742 145.394,54.047 144.402 C 54.352 143.411,54.908 141.599,55.284 140.377 C 55.659 139.154,56.105 137.831,56.275 137.436 C 56.445 137.041,56.783 136.034,57.026 135.199 C 59.409 127.003,59.359 127.073,62.865 126.976 C 66.854 126.864,68.161 128.150,66.553 130.605 C 66.384 130.861,66.106 131.616,65.934 132.281 C 65.763 132.947,65.469 133.876,65.281 134.345 C 65.094 134.815,64.495 136.608,63.950 138.330 C 63.405 140.052,62.806 141.845,62.620 142.315 C 62.434 142.785,62.138 143.681,61.961 144.307 C 61.785 144.934,61.534 145.617,61.404 145.825 C 61.273 146.034,60.763 147.486,60.269 149.051 C 59.776 150.617,59.144 152.538,58.865 153.321 C 58.587 154.103,58.170 155.342,57.940 156.072 C 57.140 158.612,56.701 159.873,56.257 160.911 C 56.012 161.485,55.636 162.562,55.422 163.304 C 55.101 164.420,54.887 164.788,54.181 165.438 L 53.329 166.224 49.520 166.224 C 44.208 166.224,44.061 166.116,42.666 161.195 C 42.459 160.465,42.127 159.501,41.930 159.053 C 41.732 158.605,41.513 157.921,41.443 157.535 C 41.372 157.148,41.152 156.508,40.954 156.113 C 40.524 155.257,38.984 150.889,38.499 149.146 C 38.102 147.720,37.537 145.969,36.907 144.213 C 36.664 143.534,36.296 142.467,36.089 141.841 C 35.883 141.214,35.276 139.464,34.740 137.951 C 30.891 127.079,30.901 126.980,35.863 126.957 C 37.939 126.948,38.551 127.008,39.089 127.277 M124.554 127.059 C 125.244 127.323,125.663 128.428,125.687 130.042 C 125.735 133.227,126.041 133.088,118.691 133.207 C 115.455 133.259,112.707 133.367,112.584 133.447 C 112.085 133.771,111.911 135.592,111.983 139.735 C 112.076 145.124,111.404 144.589,118.095 144.603 C 124.961 144.617,124.994 144.632,125.033 147.776 C 125.068 150.668,124.919 150.736,118.269 150.854 C 111.259 150.978,112.067 150.024,111.986 158.275 L 111.924 164.736 111.157 165.480 L 110.391 166.224 107.788 166.224 C 105.054 166.224,104.227 165.958,103.662 164.896 C 103.442 164.483,103.366 131.706,103.581 129.917 C 103.775 128.297,104.142 127.691,105.218 127.213 C 105.810 126.950,123.895 126.806,124.554 127.059 M314.144 134.440 C 318.241 135.093,320.421 137.266,320.013 140.288 C 319.762 142.145,319.282 142.341,317.345 141.377 C 313.394 139.411,309.486 138.784,307.400 139.783 C 306.931 140.007,306.142 140.365,305.647 140.577 C 301.200 142.487,298.985 150.250,300.295 159.340 C 301.478 167.551,308.979 170.881,317.135 166.815 L 319.375 165.699 319.682 166.167 C 320.097 166.800,320.216 169.285,319.885 170.383 C 319.610 171.293,317.830 172.486,316.319 172.774 C 315.954 172.843,315.143 173.127,314.516 173.405 C 312.757 174.184,305.428 174.185,303.767 173.406 C 303.177 173.130,302.409 172.842,302.059 172.767 C 301.319 172.607,299.047 171.321,298.143 170.550 C 297.800 170.258,297.459 170.018,297.384 170.016 C 297.310 170.015,296.907 169.584,296.490 169.059 C 296.072 168.534,295.511 167.831,295.243 167.496 C 294.975 167.162,294.640 166.599,294.498 166.246 C 294.356 165.893,294.054 165.381,293.827 165.108 C 293.599 164.834,293.305 164.141,293.174 163.567 C 293.042 162.993,292.765 161.926,292.557 161.196 C 291.298 156.761,292.096 146.406,293.890 143.886 C 294.114 143.571,294.376 143.110,294.471 142.862 C 296.255 138.213,301.797 134.633,308.065 134.080 C 309.224 133.977,312.440 134.168,314.144 134.440 M341.426 134.438 C 344.232 134.930,346.324 136.308,346.697 137.912 C 346.914 138.848,346.912 140.659,346.693 141.235 C 346.362 142.107,344.139 141.943,343.559 141.004 C 343.499 140.906,343.002 140.683,342.455 140.508 C 341.908 140.333,341.077 140.006,340.607 139.783 C 337.574 138.340,333.349 139.985,332.374 142.990 C 332.048 143.994,332.058 144.078,332.756 146.047 C 333.066 146.921,334.289 147.971,335.958 148.797 C 336.480 149.055,337.163 149.403,337.476 149.571 C 337.789 149.738,338.814 150.230,339.753 150.663 C 340.693 151.096,341.589 151.528,341.746 151.625 C 341.902 151.721,342.427 152.011,342.913 152.269 C 346.800 154.338,348.621 157.113,348.895 161.385 C 349.156 165.444,347.088 169.745,344.042 171.483 C 343.562 171.757,343.041 172.086,342.884 172.215 C 342.728 172.343,342.173 172.577,341.651 172.734 C 341.129 172.891,340.275 173.215,339.753 173.454 C 338.023 174.247,330.632 174.173,329.352 173.350 C 329.124 173.204,328.432 172.954,327.815 172.795 C 325.180 172.116,324.287 171.037,324.291 168.536 C 324.295 166.063,324.851 165.304,326.075 166.099 C 330.086 168.705,336.964 169.198,339.566 167.066 C 342.843 164.381,341.210 159.019,336.623 157.401 C 334.774 156.748,330.118 154.396,329.222 153.662 C 328.290 152.898,328.247 152.858,327.594 152.151 C 325.985 150.409,324.858 147.434,324.858 144.930 C 324.858 143.589,325.617 140.377,326.052 139.881 C 326.205 139.706,326.463 139.301,326.625 138.979 C 327.041 138.158,328.998 136.243,329.792 135.882 C 330.158 135.715,330.768 135.385,331.147 135.149 C 332.851 134.088,337.565 133.762,341.426 134.438 M357.316 134.878 C 358.529 135.114,359.349 135.997,359.771 137.520 C 359.975 138.258,360.305 139.149,360.503 139.498 C 360.701 139.847,361.006 140.731,361.180 141.461 C 361.354 142.192,361.659 143.216,361.859 143.738 C 362.211 144.661,362.802 146.634,363.588 149.511 C 363.799 150.286,364.133 151.233,364.328 151.617 C 364.524 152.001,364.814 152.876,364.974 153.562 C 365.133 154.248,365.435 155.093,365.646 155.439 C 365.856 155.785,366.169 156.710,366.341 157.493 C 366.513 158.277,366.764 159.137,366.899 159.404 C 367.034 159.671,367.328 160.653,367.552 161.586 C 368.364 164.974,369.817 165.416,370.571 162.506 C 370.758 161.785,371.091 160.861,371.312 160.452 C 371.532 160.043,371.811 159.232,371.932 158.649 C 372.052 158.067,372.312 157.272,372.510 156.882 C 372.707 156.493,373.029 155.504,373.225 154.686 C 373.420 153.867,373.719 152.929,373.888 152.602 C 374.057 152.275,374.328 151.428,374.491 150.719 C 374.654 150.010,374.983 148.876,375.223 148.197 C 375.463 147.519,375.718 146.622,375.790 146.205 C 375.861 145.787,376.163 144.848,376.461 144.118 C 377.103 142.543,377.883 140.233,378.351 138.520 C 379.108 135.750,379.836 135.021,382.049 134.818 C 385.802 134.474,386.763 135.993,384.999 139.483 C 384.810 139.857,384.487 140.796,384.282 141.571 C 384.076 142.345,383.733 143.406,383.520 143.928 C 382.977 145.259,382.191 147.657,381.749 149.336 C 381.543 150.119,381.258 150.888,381.116 151.045 C 380.975 151.203,380.672 152.011,380.444 152.842 C 380.216 153.673,379.905 154.544,379.752 154.777 C 379.599 155.011,379.316 155.782,379.122 156.491 C 378.694 158.062,377.922 160.412,377.316 161.987 C 377.068 162.632,376.733 163.729,376.571 164.427 C 376.409 165.124,376.112 165.904,375.911 166.160 C 375.709 166.417,375.444 167.109,375.321 167.699 C 375.199 168.289,374.905 169.201,374.668 169.727 C 374.432 170.253,374.065 171.076,373.853 171.555 C 373.516 172.319,373.363 172.456,372.618 172.665 C 371.684 172.927,365.265 172.867,364.649 172.591 C 364.190 172.385,363.286 170.554,362.905 169.055 C 362.734 168.385,362.441 167.495,362.254 167.078 C 362.066 166.660,361.681 165.636,361.398 164.801 C 361.114 163.966,360.635 162.557,360.333 161.670 C 360.031 160.783,359.700 159.914,359.596 159.740 C 359.493 159.566,359.229 158.718,359.008 157.856 C 358.788 156.994,358.493 156.065,358.352 155.792 C 358.211 155.520,357.954 154.745,357.781 154.071 C 357.609 153.398,357.315 152.585,357.129 152.265 C 356.943 151.946,356.683 151.220,356.551 150.652 C 356.419 150.085,356.108 149.208,355.860 148.704 C 355.611 148.200,355.232 147.096,355.016 146.250 C 354.800 145.405,354.506 144.486,354.362 144.207 C 354.217 143.929,353.996 143.282,353.869 142.771 C 353.742 142.259,353.468 141.456,353.261 140.987 C 353.053 140.517,352.652 139.236,352.369 138.140 L 351.854 136.148 352.328 135.579 C 352.955 134.825,355.329 134.491,357.316 134.878 " stroke="none" fill="#b3e394" fill-rule="evenodd"></path><path id="path3" d="M294.118 3.022 C 294.118 7.118,295.137 6.682,285.682 6.623 C 281.387 6.595,277.771 6.636,277.646 6.713 C 277.474 6.820,277.419 9.867,277.419 19.362 L 277.419 31.870 277.903 32.187 C 278.170 32.361,278.513 32.748,278.667 33.045 L 278.947 33.586 286.165 33.586 C 290.778 33.586,293.516 33.657,293.751 33.783 C 294.112 33.976,294.118 34.651,294.118 76.155 C 294.118 108.705,294.170 118.382,294.345 118.558 C 294.677 118.889,387.866 118.889,388.197 118.558 C 388.323 118.433,388.425 117.973,388.425 117.537 C 388.425 116.853,388.517 116.673,389.089 116.237 L 389.753 115.730 389.753 57.865 L 389.753 0.000 341.935 0.000 L 294.118 0.000 294.118 3.022 M65.987 2.792 C 65.804 2.995,65.655 3.259,65.655 3.378 C 65.655 3.498,65.410 3.722,65.111 3.877 C 64.754 4.061,64.527 4.359,64.450 4.743 C 64.334 5.323,64.326 5.326,63.395 5.203 C 62.459 5.079,62.453 5.082,61.477 6.057 L 60.497 7.037 60.723 7.978 C 61.016 9.200,60.976 9.215,63.069 7.116 C 64.057 6.124,64.994 5.313,65.151 5.313 C 65.307 5.313,65.687 5.101,65.995 4.843 C 66.302 4.584,67.056 4.243,67.670 4.084 C 69.905 3.507,70.259 3.225,69.213 2.856 C 67.964 2.415,66.354 2.383,65.987 2.792 M78.843 2.596 C 76.688 3.080,76.783 3.479,79.172 3.974 C 79.815 4.108,80.521 4.419,80.943 4.755 C 81.330 5.062,81.848 5.313,82.094 5.313 C 82.349 5.313,82.543 5.426,82.543 5.575 C 82.543 5.719,82.820 6.050,83.159 6.309 C 83.499 6.569,84.271 7.281,84.877 7.893 C 86.080 9.108,86.210 9.095,86.439 7.743 C 86.640 6.550,84.980 5.028,83.668 5.202 C 82.819 5.315,82.732 5.291,82.732 4.949 C 82.732 3.651,80.407 2.245,78.843 2.596 M59.415 9.535 C 59.080 9.874,58.609 10.329,58.367 10.545 C 57.959 10.911,57.939 11.019,58.090 12.120 C 58.411 14.468,58.797 14.530,59.406 12.333 C 59.639 11.491,59.979 10.747,60.258 10.469 C 60.918 9.809,60.811 8.918,60.072 8.918 C 60.045 8.918,59.749 9.196,59.415 9.535 M86.575 9.044 C 86.182 9.203,86.306 9.775,86.894 10.515 C 87.200 10.900,87.509 11.488,87.581 11.822 C 88.028 13.894,88.480 14.255,88.892 12.869 C 89.321 11.424,89.272 10.909,88.662 10.453 C 88.375 10.239,88.068 9.985,87.979 9.889 C 87.890 9.794,87.656 9.536,87.457 9.317 C 87.088 8.909,86.987 8.878,86.575 9.044 M43.643 12.906 C 42.867 13.005,41.935 13.366,41.935 13.566 C 41.935 13.610,42.555 13.830,43.311 14.056 C 44.074 14.283,44.889 14.667,45.140 14.918 C 45.642 15.419,45.926 15.479,46.253 15.151 C 46.530 14.874,46.220 14.231,45.809 14.231 C 45.651 14.231,45.439 13.995,45.338 13.706 C 45.086 12.984,44.647 12.777,43.643 12.906 M102.192 13.083 C 101.438 13.915,102.063 14.322,103.468 13.912 C 104.733 13.543,104.632 13.273,103.093 12.903 C 102.629 12.792,102.416 12.834,102.192 13.083 M116.003 12.942 C 114.681 13.221,114.629 13.561,115.856 13.909 C 117.017 14.240,117.457 14.174,117.457 13.671 C 117.457 13.052,116.873 12.759,116.003 12.942 M29.829 13.131 C 29.704 13.256,29.602 13.563,29.602 13.813 C 29.602 14.233,29.536 14.263,28.700 14.224 C 27.397 14.164,27.363 14.176,27.040 14.801 C 26.878 15.114,26.617 15.370,26.459 15.370 C 26.302 15.370,25.997 15.669,25.781 16.034 C 25.566 16.399,25.266 16.698,25.115 16.698 C 24.964 16.698,24.701 16.940,24.532 17.235 C 24.362 17.531,23.973 17.916,23.666 18.092 C 23.136 18.397,23.114 18.457,23.239 19.311 C 23.457 20.798,23.815 20.847,24.507 19.484 C 25.023 18.467,27.538 16.037,28.676 15.456 C 29.170 15.204,29.597 14.837,29.656 14.615 C 29.712 14.398,29.830 14.240,29.917 14.264 C 30.238 14.351,31.798 14.015,32.258 13.760 L 32.732 13.498 32.027 13.200 C 31.188 12.847,30.146 12.814,29.829 13.131 M118.596 14.181 C 118.104 14.271,117.647 14.563,117.647 14.786 C 117.647 14.901,119.236 15.750,119.450 15.750 C 119.863 15.750,120.140 14.765,119.825 14.416 C 119.480 14.036,119.433 14.027,118.596 14.181 M100.967 14.684 C 100.800 14.885,100.813 14.971,101.025 15.052 C 101.325 15.167,101.783 14.749,101.580 14.546 C 101.388 14.355,101.206 14.396,100.967 14.684 M98.227 15.717 C 98.054 15.908,97.913 16.159,97.913 16.276 C 97.913 16.392,97.678 16.600,97.391 16.737 C 96.767 17.035,96.628 17.664,97.085 18.121 C 97.400 18.436,97.433 18.430,97.763 18.002 C 98.409 17.164,98.765 16.794,99.241 16.466 L 99.715 16.139 99.267 15.755 C 98.718 15.283,98.623 15.279,98.227 15.717 M48.708 17.002 L 48.175 17.291 48.893 18.086 C 49.773 19.061,49.912 19.069,50.256 18.166 C 50.710 16.973,49.894 16.359,48.708 17.002 M56.964 16.926 C 56.587 17.303,56.679 18.865,57.100 19.246 C 57.630 19.726,58.254 19.083,58.254 18.056 C 58.254 17.026,57.513 16.377,56.964 16.926 M121.384 17.037 C 121.100 17.351,121.112 17.417,121.544 17.938 C 121.997 18.486,122.017 18.491,122.295 18.133 C 123.002 17.220,122.148 16.193,121.384 17.037 M50.538 19.652 C 50.407 19.995,50.759 20.873,51.028 20.873 C 51.128 20.873,51.432 21.599,51.702 22.486 C 52.260 24.315,52.289 24.343,52.666 23.441 C 53.211 22.137,52.880 20.498,52.072 20.492 C 51.976 20.491,51.752 20.235,51.574 19.923 C 51.224 19.308,50.721 19.176,50.538 19.652 M123.056 19.732 C 122.880 20.285,123.200 20.605,123.531 20.207 C 123.740 19.955,123.733 19.857,123.485 19.609 C 123.217 19.340,123.176 19.352,123.056 19.732 M95.697 19.848 C 95.542 20.253,96.052 20.571,96.260 20.199 C 96.430 19.895,96.290 19.545,95.998 19.545 C 95.897 19.545,95.761 19.681,95.697 19.848 M22.185 20.848 C 21.776 21.179,21.762 21.255,21.979 21.979 C 22.385 23.333,22.782 23.262,23.181 21.764 C 23.389 20.984,23.383 20.827,23.145 20.676 C 22.758 20.431,22.683 20.445,22.185 20.848 M94.432 20.840 C 93.963 21.359,94.351 23.380,94.860 23.065 C 95.226 22.839,95.542 20.860,95.242 20.671 C 94.864 20.431,94.788 20.447,94.432 20.840 M124.394 22.374 C 124.189 22.706,124.500 23.179,124.774 22.951 C 124.912 22.836,124.978 22.621,124.921 22.472 C 124.803 22.164,124.552 22.118,124.394 22.374 M58.397 23.085 C 58.136 23.737,57.987 24.703,58.045 25.358 C 58.056 25.476,58.373 25.720,58.750 25.899 C 59.407 26.210,59.430 26.255,59.315 26.976 L 59.195 27.727 61.516 30.040 L 63.838 32.353 64.720 32.290 C 65.569 32.229,65.605 32.248,65.717 32.807 C 65.860 33.520,66.504 33.733,67.561 33.416 C 68.854 33.029,68.353 32.426,66.488 32.123 C 66.140 32.067,65.842 31.889,65.795 31.712 C 65.750 31.540,65.328 31.201,64.857 30.959 C 63.717 30.372,61.350 27.990,60.775 26.850 C 60.617 26.537,60.295 26.067,60.058 25.806 C 59.822 25.546,59.522 24.862,59.391 24.288 C 58.975 22.464,58.753 22.195,58.397 23.085 M88.036 23.270 C 87.925 23.561,87.746 24.215,87.637 24.721 C 87.528 25.228,87.316 25.690,87.164 25.748 C 87.013 25.806,86.685 26.258,86.434 26.752 C 85.897 27.812,83.322 30.435,82.314 30.950 C 81.925 31.148,81.526 31.460,81.428 31.642 C 81.326 31.831,80.712 32.126,79.995 32.330 C 78.463 32.766,78.327 32.940,79.228 33.316 C 80.338 33.780,81.082 33.619,81.304 32.866 C 81.485 32.248,81.499 32.242,82.516 32.297 C 83.365 32.343,83.582 32.290,83.755 31.990 C 83.941 31.671,84.136 31.458,84.843 30.806 C 84.939 30.718,85.223 30.432,85.474 30.171 C 85.725 29.910,86.030 29.597,86.151 29.476 C 86.272 29.355,86.569 29.056,86.811 28.812 C 87.053 28.568,87.395 28.250,87.571 28.107 C 87.823 27.901,87.865 27.669,87.768 27.023 C 87.648 26.219,87.660 26.193,88.313 25.921 C 89.126 25.581,89.274 25.093,88.950 23.829 C 88.669 22.737,88.320 22.523,88.036 23.270 M382.263 24.499 C 383.306 24.762,383.618 25.086,383.180 25.449 C 382.918 25.667,379.632 25.734,363.965 25.841 C 353.571 25.912,343.914 26.025,342.505 26.093 C 339.418 26.242,338.096 25.575,339.511 24.584 C 340.047 24.209,380.789 24.128,382.263 24.499 M20.871 24.764 C 20.616 25.073,20.522 31.654,20.768 32.051 C 20.924 32.305,21.569 32.324,21.720 32.080 C 21.977 31.663,21.874 24.817,21.608 24.649 C 21.246 24.420,21.144 24.436,20.871 24.764 M125.491 24.715 C 125.359 24.897,125.292 30.706,125.406 32.021 C 125.433 32.323,126.039 32.329,126.338 32.030 C 126.629 31.739,126.657 25.383,126.369 24.845 C 126.145 24.426,125.744 24.367,125.491 24.715 M93.158 26.104 C 92.842 26.485,92.789 30.288,93.094 30.705 C 93.667 31.488,93.928 30.823,93.928 28.579 C 93.928 25.866,93.772 25.365,93.158 26.104 M344.021 28.745 C 344.578 29.417,344.135 29.602,341.962 29.602 C 339.798 29.602,339.310 29.397,339.868 28.724 C 340.188 28.338,343.698 28.356,344.021 28.745 M333.776 30.464 C 333.776 30.879,332.350 31.689,331.619 31.689 C 331.264 31.689,330.687 31.809,330.336 31.957 C 329.788 32.187,329.610 32.187,329.058 31.957 C 328.611 31.770,327.625 31.689,325.805 31.689 C 323.983 31.689,323.001 31.770,322.556 31.957 C 322.008 32.187,321.830 32.187,321.278 31.957 C 320.396 31.588,315.663 31.584,314.791 31.951 C 314.258 32.175,314.074 32.173,313.510 31.937 C 312.991 31.720,312.247 31.685,309.984 31.769 C 306.422 31.901,306.388 31.901,303.036 31.767 C 301.238 31.696,300.038 31.732,299.573 31.871 C 299.040 32.030,298.674 32.027,298.112 31.859 C 297.522 31.682,297.238 31.686,296.774 31.879 C 296.044 32.181,294.923 31.869,294.281 31.186 L 293.862 30.740 286.589 30.740 C 280.179 30.740,279.317 30.706,279.317 30.449 C 279.317 30.214,279.491 30.177,280.218 30.258 C 280.714 30.314,292.903 30.294,307.306 30.215 C 335.060 30.063,333.776 30.051,333.776 30.464 M344.170 32.671 C 344.686 33.187,344.039 33.397,341.923 33.397 C 339.876 33.397,339.515 33.286,339.731 32.723 C 339.867 32.367,343.819 32.320,344.170 32.671 M51.995 33.390 C 51.566 34.426,52.135 35.373,52.745 34.638 C 53.013 34.315,52.851 33.336,52.479 33.027 C 52.288 32.869,52.176 32.953,51.995 33.390 M69.820 33.672 C 69.558 33.934,69.599 34.455,69.901 34.706 C 70.372 35.097,77.043 34.900,77.303 34.488 C 77.450 34.254,77.453 34.062,77.314 33.841 C 77.086 33.479,70.168 33.323,69.820 33.672 M94.393 34.244 C 94.038 35.092,94.045 35.574,94.416 35.945 C 95.196 36.725,95.578 36.035,95.161 34.601 C 94.813 33.405,94.755 33.378,94.393 34.244 M124.388 33.949 C 124.219 34.484,124.518 34.849,124.825 34.480 C 124.988 34.283,124.978 34.134,124.784 33.867 C 124.537 33.531,124.520 33.534,124.388 33.949 M22.097 34.434 C 21.737 35.294,21.750 35.550,22.169 35.929 C 22.973 36.657,23.419 36.005,23.026 34.677 C 22.709 33.606,22.469 33.544,22.097 34.434 M50.671 36.419 C 50.286 37.138,50.908 37.717,51.413 37.109 C 51.581 36.907,51.585 36.735,51.430 36.445 C 51.168 35.955,50.924 35.947,50.671 36.419 M344.119 36.434 C 344.558 37.145,344.039 37.381,342.041 37.381 C 340.000 37.381,339.519 37.206,339.770 36.552 C 339.909 36.191,343.902 36.083,344.119 36.434 M23.316 37.197 C 23.053 38.074,23.196 38.492,23.865 38.797 C 24.084 38.897,24.353 39.176,24.463 39.416 C 24.573 39.657,24.877 39.952,25.140 40.071 C 25.402 40.191,25.617 40.370,25.617 40.469 C 25.617 41.197,27.737 42.741,28.513 42.578 C 29.524 42.365,29.664 41.896,28.822 41.548 C 28.280 41.323,26.862 40.265,26.236 39.617 C 25.470 38.825,24.787 37.952,24.421 37.301 C 23.851 36.285,23.596 36.261,23.316 37.197 M95.725 36.631 C 95.658 36.740,95.711 36.959,95.842 37.117 C 96.056 37.374,96.099 37.373,96.248 37.107 C 96.525 36.614,96.020 36.154,95.725 36.631 M123.024 36.730 C 122.855 37.169,123.228 37.460,123.516 37.113 C 123.759 36.820,123.649 36.433,123.323 36.433 C 123.221 36.433,123.087 36.566,123.024 36.730 M96.981 38.826 C 96.539 39.389,96.757 39.887,97.558 40.141 C 97.753 40.203,97.913 40.362,97.913 40.496 C 97.913 41.020,98.640 41.442,99.147 41.211 C 99.769 40.927,99.745 40.743,99.004 40.133 C 98.665 39.854,98.161 39.331,97.885 38.970 L 97.383 38.315 96.981 38.826 M121.476 38.894 C 121.099 39.404,121.097 39.441,121.419 39.733 C 122.057 40.310,122.892 39.755,122.543 38.987 C 122.241 38.325,121.917 38.297,121.476 38.894 M66.058 38.966 C 65.269 39.916,66.385 40.279,68.378 39.719 L 69.513 39.401 68.801 39.155 C 67.537 38.717,66.333 38.634,66.058 38.966 M78.843 38.999 C 78.321 39.144,77.808 39.272,77.704 39.284 C 77.295 39.331,79.065 39.860,79.998 39.970 C 80.859 40.071,81.012 40.037,81.189 39.706 C 81.652 38.841,80.577 38.517,78.843 38.999 M61.030 40.092 C 60.851 40.222,60.598 40.541,60.467 40.800 C 60.287 41.157,60.094 41.263,59.669 41.238 C 58.698 41.181,58.270 41.355,57.975 41.925 C 57.818 42.229,57.518 42.532,57.310 42.598 C 57.093 42.667,56.862 42.977,56.771 43.323 C 56.613 43.923,56.602 43.927,55.548 43.865 C 54.542 43.806,54.469 43.832,54.203 44.346 C 54.049 44.645,53.703 45.007,53.435 45.151 C 53.167 45.294,52.897 45.570,52.836 45.763 C 52.775 45.956,52.480 46.240,52.182 46.395 C 51.884 46.549,51.585 46.848,51.518 47.059 C 51.451 47.270,51.146 47.572,50.840 47.730 C 50.203 48.060,50.125 48.586,50.560 49.627 C 50.902 50.446,50.891 50.447,51.583 49.507 C 52.415 48.376,53.675 47.097,55.025 46.015 C 55.676 45.493,56.458 44.832,56.764 44.545 C 57.069 44.258,57.429 44.023,57.564 44.023 C 57.698 44.023,58.005 43.814,58.245 43.558 C 58.485 43.302,59.071 42.961,59.548 42.798 C 60.024 42.636,60.597 42.331,60.820 42.121 C 61.044 41.911,61.804 41.579,62.509 41.384 C 64.171 40.923,64.401 40.696,63.554 40.352 C 62.534 39.938,61.400 39.821,61.030 40.092 M84.496 40.044 C 82.535 40.440,82.574 40.739,84.670 41.372 C 85.370 41.584,86.000 41.850,86.070 41.962 C 86.140 42.075,86.672 42.378,87.252 42.634 C 87.833 42.891,88.554 43.309,88.855 43.562 C 89.157 43.815,89.511 44.023,89.644 44.023 C 89.776 44.023,90.181 44.300,90.543 44.639 C 90.905 44.979,91.697 45.663,92.304 46.160 C 93.387 47.049,95.076 48.834,95.636 49.683 C 96.134 50.439,98.297 50.485,100.380 49.784 C 100.907 49.606,100.030 49.176,98.888 49.052 C 97.237 48.873,96.998 48.795,96.868 48.385 C 96.802 48.175,96.503 47.877,96.205 47.723 C 95.907 47.569,95.608 47.270,95.541 47.059 C 95.474 46.848,95.175 46.549,94.877 46.395 C 94.578 46.240,94.278 45.937,94.210 45.721 C 94.141 45.505,93.899 45.243,93.672 45.140 C 93.445 45.036,93.108 44.689,92.924 44.367 C 92.604 43.810,92.543 43.787,91.671 43.890 C 90.698 44.005,90.323 43.822,90.323 43.231 C 90.323 43.046,90.066 42.762,89.753 42.600 C 89.440 42.438,89.184 42.193,89.184 42.055 C 89.184 41.512,88.482 41.134,87.716 41.263 C 87.024 41.380,86.958 41.347,86.518 40.665 C 86.014 39.885,85.726 39.796,84.496 40.044 M344.021 40.320 C 344.578 40.992,344.135 41.176,341.962 41.176 C 339.798 41.176,339.310 40.972,339.868 40.299 C 340.188 39.913,343.698 39.931,344.021 40.320 M45.351 41.742 C 45.106 41.898,45.121 41.977,45.458 42.315 C 45.847 42.706,45.851 42.706,46.188 42.334 C 46.740 41.724,46.096 41.269,45.351 41.742 M100.867 41.914 C 100.695 42.193,101.311 42.598,101.547 42.361 C 101.659 42.250,101.693 42.065,101.623 41.952 C 101.469 41.703,101.012 41.680,100.867 41.914 M117.732 41.952 C 117.514 42.304,117.969 42.599,118.303 42.322 C 118.464 42.188,118.596 42.004,118.596 41.912 C 118.596 41.673,117.884 41.706,117.732 41.952 M29.839 42.632 C 29.010 42.960,30.026 44.125,30.964 43.923 C 32.439 43.607,32.635 43.186,31.452 42.880 C 30.148 42.544,30.087 42.534,29.839 42.632 M102.039 42.806 C 101.507 43.338,102.298 44.096,103.208 43.927 C 104.214 43.738,104.701 43.244,104.104 43.015 C 103.573 42.811,102.175 42.670,102.039 42.806 M115.787 42.882 C 114.997 43.069,114.881 43.188,115.160 43.524 C 115.783 44.274,117.457 44.010,117.457 43.162 C 117.457 42.650,117.053 42.582,115.787 42.882 M42.505 43.081 C 42.258 43.245,42.270 43.309,42.588 43.552 C 43.053 43.906,43.345 43.908,43.636 43.557 C 44.097 43.002,43.191 42.621,42.505 43.081 M344.145 44.310 C 344.393 44.956,343.861 45.161,341.935 45.161 C 340.004 45.161,339.523 44.977,339.770 44.331 C 339.940 43.889,343.976 43.869,344.145 44.310 M344.021 48.100 C 344.578 48.772,344.135 48.956,341.962 48.956 C 339.798 48.956,339.310 48.751,339.868 48.078 C 340.188 47.693,343.698 47.711,344.021 48.100 M30.039 49.078 C 29.915 49.129,29.714 49.468,29.595 49.831 C 29.379 50.485,29.367 50.491,28.533 50.366 C 27.607 50.227,26.945 50.596,26.945 51.252 C 26.945 51.992,28.346 51.914,29.534 51.108 C 29.995 50.795,30.874 50.512,32.126 50.274 C 33.169 50.075,34.071 49.863,34.131 49.804 C 34.583 49.351,30.952 48.707,30.039 49.078 M47.072 49.163 C 45.998 49.374,45.708 49.645,46.316 49.872 C 48.022 50.509,49.606 50.158,48.841 49.313 C 48.491 48.927,48.341 48.914,47.072 49.163 M114.689 49.135 C 113.294 49.469,113.419 49.778,115.073 50.080 C 116.916 50.415,117.457 50.363,117.457 49.848 C 117.457 48.999,116.399 48.726,114.689 49.135 M118.283 50.473 C 117.560 50.765,117.628 51.001,118.522 51.306 C 119.324 51.579,120.114 51.487,120.114 51.119 C 120.114 50.409,119.222 50.094,118.283 50.473 M24.525 52.151 C 24.329 52.473,23.936 52.919,23.652 53.143 C 23.243 53.465,23.181 53.604,23.356 53.814 C 23.674 54.198,24.058 54.142,24.535 53.642 C 24.765 53.401,25.357 53.053,25.852 52.868 C 27.318 52.320,27.286 51.894,25.763 51.685 C 24.927 51.571,24.863 51.595,24.525 52.151 M120.861 51.964 L 120.427 52.315 121.325 52.658 C 122.154 52.975,122.246 52.977,122.531 52.692 C 123.274 51.949,121.717 51.270,120.861 51.964 M344.170 52.026 C 344.686 52.542,344.039 52.751,341.923 52.751 C 339.860 52.751,339.559 52.661,339.773 52.104 C 339.919 51.724,343.799 51.655,344.170 52.026 M122.843 53.217 C 122.709 53.565,122.903 53.890,123.245 53.890 C 123.635 53.890,123.783 53.532,123.523 53.217 C 123.231 52.866,122.977 52.865,122.843 53.217 M20.807 54.427 C 20.635 54.618,20.493 54.860,20.493 54.966 C 20.493 55.071,20.279 55.255,20.016 55.375 C 19.754 55.494,19.445 55.797,19.331 56.048 C 19.217 56.299,18.918 56.598,18.667 56.713 C 18.416 56.827,18.122 57.115,18.014 57.352 C 17.906 57.590,17.555 57.935,17.235 58.118 C 16.720 58.414,16.667 58.523,16.775 59.062 C 16.972 60.049,17.387 60.340,17.778 59.766 C 18.336 58.947,21.127 56.149,21.964 55.569 C 22.942 54.891,22.964 54.710,22.112 54.355 C 21.272 54.004,21.186 54.008,20.807 54.427 M125.252 54.320 C 124.586 54.659,124.594 54.881,125.286 55.354 C 126.198 55.978,128.674 58.421,129.247 59.262 L 129.746 59.995 130.054 59.557 C 130.507 58.910,130.429 58.466,129.801 58.105 C 129.493 57.929,129.153 57.589,129.044 57.351 C 128.936 57.113,128.633 56.837,128.370 56.737 C 128.108 56.637,127.894 56.459,127.894 56.341 C 127.894 56.150,125.951 54.075,125.780 54.082 C 125.742 54.084,125.505 54.191,125.252 54.320 M344.119 55.789 C 344.593 56.556,344.035 56.791,341.991 56.687 C 339.907 56.581,339.419 56.400,339.842 55.890 C 340.127 55.546,343.913 55.457,344.119 55.789 M339.086 57.448 C 339.080 58.194,338.789 58.324,338.162 57.861 C 337.509 57.378,337.648 57.124,338.567 57.119 C 338.940 57.117,339.088 57.211,339.086 57.448 M344.118 60.057 C 344.118 60.396,343.973 60.442,342.745 60.492 C 341.194 60.555,340.436 60.302,340.814 59.847 C 341.209 59.371,344.118 59.556,344.118 60.057 M15.560 61.290 C 15.337 61.603,15.045 61.860,14.912 61.860 C 14.314 61.860,14.021 62.525,14.276 63.302 C 14.604 64.304,14.994 64.236,15.459 63.095 C 15.671 62.574,16.055 61.964,16.313 61.741 C 16.714 61.391,16.745 61.290,16.527 61.027 C 16.171 60.599,16.023 60.639,15.560 61.290 M130.865 60.849 C 130.583 61.131,130.750 61.670,131.120 61.670 C 131.328 61.670,131.499 61.552,131.499 61.408 C 131.499 61.087,131.036 60.678,130.865 60.849 M131.777 62.060 C 131.629 62.299,131.829 63.184,132.105 63.517 C 132.356 63.820,132.613 63.657,132.844 63.048 C 133.124 62.312,132.168 61.427,131.777 62.060 M344.145 63.665 C 344.367 64.244,343.845 64.516,342.511 64.516 C 341.058 64.516,340.197 64.014,340.925 63.590 C 341.490 63.262,344.013 63.320,344.145 63.665 M13.094 64.800 C 12.799 65.155,13.042 66.812,13.406 66.931 C 13.668 67.016,14.295 65.463,14.200 64.964 C 14.114 64.511,13.419 64.408,13.094 64.800 M133.131 64.821 C 132.991 65.185,133.385 66.603,133.626 66.603 C 134.056 66.603,134.382 65.250,134.042 64.875 C 133.645 64.436,133.286 64.414,133.131 64.821 M11.866 67.239 C 11.444 67.548,11.543 69.808,12.018 70.716 L 12.296 71.245 12.490 70.490 C 13.316 67.280,13.131 66.315,11.866 67.239 M134.362 67.332 C 134.259 67.524,134.210 67.844,134.253 68.043 C 134.296 68.243,134.427 68.902,134.544 69.507 C 134.785 70.760,135.194 70.746,135.392 69.478 C 135.451 69.097,135.537 68.549,135.583 68.260 C 135.723 67.368,134.742 66.622,134.362 67.332 M344.021 67.455 C 344.515 68.051,344.110 68.311,342.688 68.311 C 340.984 68.311,340.425 68.068,340.906 67.537 C 341.332 67.066,343.647 67.005,344.021 67.455 M344.185 71.409 C 344.574 71.878,344.018 72.106,342.490 72.106 C 340.969 72.106,340.375 71.845,340.839 71.381 C 341.159 71.061,343.916 71.084,344.185 71.409 M324.968 75.036 C 325.190 75.341,325.236 76.760,325.229 83.196 C 325.224 87.481,325.259 96.004,325.306 102.137 L 325.391 113.286 324.987 113.569 C 324.367 114.004,313.182 113.988,312.559 113.551 L 312.130 113.251 312.222 99.462 C 312.272 91.879,312.318 83.300,312.324 80.399 L 312.334 75.124 312.951 74.850 C 314.018 74.377,324.606 74.541,324.968 75.036 M344.023 75.032 C 344.023 75.076,344.075 75.246,344.138 75.411 C 344.238 75.671,344.026 75.712,342.557 75.712 C 340.744 75.712,340.419 75.612,340.942 75.215 C 341.239 74.989,344.023 74.824,344.023 75.032 M383.277 77.898 C 383.524 77.958,383.666 78.067,383.594 78.140 C 383.458 78.277,376.906 78.581,375.712 78.506 C 375.346 78.484,373.745 78.471,372.154 78.477 C 370.562 78.484,368.876 78.490,368.406 78.490 C 367.936 78.490,366.186 78.490,364.516 78.490 C 362.846 78.490,361.096 78.490,360.626 78.490 C 360.157 78.490,358.470 78.489,356.879 78.487 C 355.287 78.486,353.558 78.486,353.036 78.488 C 352.514 78.490,350.764 78.487,349.146 78.481 C 347.528 78.475,345.906 78.496,345.541 78.528 C 344.045 78.657,340.253 78.280,340.505 78.027 C 340.821 77.710,381.991 77.586,383.277 77.898 M339.075 99.431 C 339.191 106.371,339.323 112.277,339.369 112.555 C 339.521 113.475,339.323 113.507,333.587 113.481 C 327.735 113.455,327.215 113.378,327.400 112.568 C 327.466 112.283,327.561 110.854,327.613 109.393 C 327.722 106.291,328.064 101.227,328.247 100.000 L 328.375 99.146 328.790 100.664 C 329.018 101.499,329.302 102.630,329.422 103.178 L 329.639 104.175 332.852 104.175 C 336.736 104.175,337.282 104.025,337.456 102.912 C 337.595 102.031,338.277 91.969,338.463 88.081 C 338.695 83.218,338.853 86.158,339.075 99.431 M310.099 97.070 C 310.394 97.239,310.436 97.841,310.532 103.136 C 310.591 106.368,310.676 109.931,310.721 111.053 C 310.836 113.920,311.250 113.742,304.309 113.815 C 299.672 113.865,298.760 113.829,298.391 113.587 L 297.954 113.301 298.052 105.275 C 298.107 100.860,298.219 97.162,298.303 97.056 C 298.505 96.799,309.651 96.812,310.099 97.070 M11.977 107.387 C 11.598 107.621,11.807 108.246,12.288 108.315 C 12.604 108.360,12.713 108.280,12.713 108.006 C 12.713 107.533,12.301 107.186,11.977 107.387 M134.662 107.527 C 134.439 107.750,134.526 108.349,134.782 108.349 C 135.213 108.349,135.501 107.934,135.266 107.652 C 135.036 107.373,134.853 107.336,134.662 107.527 M12.903 109.050 C 12.903 109.278,12.982 109.514,13.077 109.573 C 13.606 109.900,133.873 109.677,134.115 109.349 C 134.424 108.929,133.904 108.473,133.327 108.656 C 133.121 108.721,125.730 108.747,116.903 108.713 C 108.076 108.679,81.065 108.648,56.879 108.643 L 12.903 108.634 12.903 109.050 M386.053 116.638 C 386.417 116.852,386.411 116.870,385.898 117.064 C 384.959 117.421,297.263 117.343,296.966 116.985 C 296.693 116.656,296.850 116.567,297.913 116.450 C 299.787 116.243,385.695 116.426,386.053 116.638 " stroke="none" fill="#ebedef" fill-rule="evenodd"></path><path id="path4" d="M107.927 13.257 C 107.434 13.332,106.775 13.583,106.462 13.814 C 106.150 14.045,105.274 14.365,104.516 14.524 C 103.626 14.711,102.968 14.972,102.660 15.260 C 102.397 15.506,101.969 15.772,101.708 15.851 C 101.218 16.000,101.037 16.153,99.188 17.984 C 97.307 19.846,97.154 20.025,97.154 20.352 C 97.154 20.527,96.897 20.962,96.584 21.319 C 96.217 21.737,95.947 22.317,95.829 22.944 C 95.622 24.033,95.328 24.688,94.944 24.915 C 94.630 25.100,94.560 31.879,94.872 31.879 C 95.168 31.879,95.581 32.835,95.829 34.098 C 95.983 34.878,96.211 35.412,96.512 35.695 C 96.761 35.928,96.964 36.223,96.964 36.349 C 96.964 36.649,98.582 38.641,99.420 39.373 C 99.779 39.686,100.284 40.145,100.542 40.393 C 100.800 40.640,101.292 40.960,101.634 41.103 C 101.976 41.246,102.332 41.499,102.425 41.665 C 102.518 41.831,103.228 42.135,104.001 42.339 C 104.775 42.543,105.656 42.890,105.959 43.109 C 107.200 44.007,112.239 44.003,113.384 43.103 C 113.639 42.902,114.426 42.586,115.131 42.402 C 115.836 42.217,116.627 41.882,116.888 41.657 C 117.149 41.432,117.611 41.142,117.916 41.012 C 118.919 40.585,122.391 37.097,122.391 36.516 C 122.391 36.373,122.637 36.005,122.937 35.697 C 123.339 35.286,123.538 34.828,123.690 33.961 C 123.804 33.313,124.084 32.472,124.312 32.093 C 124.934 31.059,124.941 25.819,124.322 24.817 C 124.099 24.456,123.793 23.576,123.644 22.861 C 123.465 22.007,123.239 21.461,122.984 21.265 C 122.771 21.102,122.484 20.712,122.347 20.398 C 122.018 19.650,121.496 19.072,118.785 16.453 C 118.525 16.201,118.098 15.930,117.837 15.851 C 117.576 15.772,117.147 15.506,116.885 15.260 C 116.575 14.972,115.917 14.711,115.020 14.522 C 114.258 14.362,113.273 14.019,112.832 13.761 C 111.941 13.239,109.609 12.999,107.927 13.257 M49.431 30.133 C 48.700 30.525,47.832 31.120,47.500 31.457 C 47.169 31.793,46.727 32.068,46.519 32.068 C 46.310 32.068,45.898 32.271,45.603 32.519 C 45.308 32.766,43.786 33.612,42.220 34.397 C 40.572 35.225,39.134 36.081,38.805 36.433 C 38.458 36.802,36.897 37.710,34.820 38.750 C 30.856 40.735,31.149 40.543,31.589 40.865 C 31.830 41.041,31.869 41.160,31.718 41.254 C 31.135 41.613,31.545 41.891,32.848 42.019 C 34.388 42.171,35.051 42.418,35.203 42.895 C 35.431 43.616,39.276 43.598,39.664 42.874 C 39.876 42.479,40.933 42.129,41.935 42.124 C 42.919 42.118,43.428 41.937,43.551 41.547 C 43.654 41.223,44.181 40.984,45.377 40.721 C 45.700 40.650,45.919 40.447,45.994 40.150 C 46.073 39.834,46.289 39.649,46.679 39.564 C 47.077 39.476,47.249 39.326,47.249 39.065 C 47.249 38.850,47.488 38.555,47.815 38.369 C 48.126 38.191,48.464 37.810,48.564 37.523 C 48.665 37.235,48.957 36.920,49.212 36.823 C 49.587 36.681,49.701 36.468,49.803 35.724 C 49.951 34.651,50.040 34.481,50.617 34.177 C 51.046 33.951,51.318 29.402,50.901 29.417 C 50.823 29.420,50.161 29.742,49.431 30.133 M104.744 49.454 C 104.587 49.514,103.945 49.764,103.316 50.008 C 102.660 50.263,101.389 50.532,100.330 50.641 C 99.316 50.744,98.400 50.882,98.294 50.948 C 97.874 51.207,98.088 52.673,98.671 53.529 C 98.984 53.989,99.332 54.706,99.445 55.123 C 99.558 55.541,99.849 56.181,100.093 56.546 C 100.337 56.912,100.637 57.723,100.761 58.349 C 100.884 58.975,101.169 59.872,101.394 60.342 L 101.803 61.195 101.863 81.309 C 101.934 105.088,101.898 106.319,101.117 107.004 C 99.749 108.204,99.139 108.159,116.785 108.159 C 133.774 108.159,133.444 108.174,133.916 107.376 C 134.093 107.076,134.388 106.783,134.572 106.725 C 135.284 106.499,135.316 105.679,135.257 89.469 L 135.199 73.719 134.686 72.675 C 134.385 72.063,134.053 70.892,133.884 69.845 C 133.690 68.647,133.474 67.930,133.227 67.664 C 133.025 67.446,132.729 66.767,132.571 66.156 C 132.409 65.528,132.124 64.932,131.918 64.788 C 131.717 64.647,131.442 64.138,131.308 63.656 C 131.164 63.142,130.882 62.661,130.626 62.494 C 130.386 62.337,130.095 61.920,129.979 61.568 C 129.863 61.217,129.607 60.878,129.410 60.815 C 129.213 60.753,129.000 60.539,128.937 60.341 C 128.817 59.961,126.413 57.484,125.071 56.357 C 124.636 55.991,124.047 55.468,123.762 55.193 C 123.478 54.918,123.050 54.633,122.812 54.561 C 122.574 54.489,122.190 54.233,121.958 53.992 C 121.726 53.751,121.195 53.449,120.778 53.320 C 120.361 53.191,119.806 52.892,119.545 52.657 C 119.284 52.421,118.621 52.124,118.072 51.996 C 117.523 51.868,116.785 51.568,116.432 51.329 C 115.945 50.998,115.319 50.842,113.835 50.681 C 112.452 50.530,111.571 50.322,110.826 49.969 C 109.781 49.474,105.607 49.120,104.744 49.454 M44.402 63.266 C 44.402 63.770,44.200 64.683,43.943 65.338 C 43.213 67.198,42.926 68.155,42.620 69.756 C 41.900 73.516,41.358 76.477,41.183 77.618 C 41.078 78.301,40.861 79.283,40.700 79.800 C 40.352 80.924,39.669 84.122,39.465 85.579 C 39.385 86.153,39.190 87.007,39.032 87.476 C 38.873 87.946,38.686 88.693,38.615 89.136 C 38.545 89.579,38.409 89.989,38.314 90.048 C 38.218 90.107,38.140 90.448,38.140 90.806 C 38.140 91.338,36.623 94.854,35.647 96.584 C 35.559 96.741,35.196 97.424,34.841 98.102 C 33.966 99.775,32.991 100.758,32.201 100.763 C 31.737 100.766,31.362 100.986,30.608 101.700 C 29.493 102.754,29.042 103.036,28.471 103.036 C 28.253 103.036,27.704 103.378,27.252 103.795 C 26.623 104.374,26.273 104.554,25.775 104.554 C 25.278 104.554,24.968 104.713,24.478 105.218 C 23.978 105.734,23.683 105.882,23.153 105.882 C 22.589 105.882,22.315 106.041,21.567 106.801 L 20.663 107.719 33.314 107.853 C 40.273 107.927,46.016 107.937,46.076 107.877 C 46.137 107.816,45.957 107.554,45.676 107.293 C 44.948 106.618,44.999 107.930,44.774 84.254 C 44.661 72.307,44.531 62.494,44.485 62.449 C 44.440 62.403,44.402 62.771,44.402 63.266 M314.140 106.104 C 313.854 107.692,313.559 112.948,313.752 113.022 C 314.598 113.347,324.191 112.975,324.155 112.619 C 323.897 110.088,323.670 108.201,323.487 107.068 L 323.266 105.693 319.049 105.693 C 316.729 105.693,314.702 105.643,314.543 105.582 C 314.331 105.501,314.224 105.639,314.140 106.104 " stroke="none" fill="#135795" fill-rule="evenodd"></path></g></svg>